<?xml version="1.0" encoding="utf-8"?>
<!-- Generator: Adobe Illustrator 24.0.1, SVG Export Plug-In . SVG Version: 6.00 Build 0)  -->
<svg version="1.1" id="Слой_1" xmlns="http://www.w3.org/2000/svg" xmlns:xlink="http://www.w3.org/1999/xlink" x="0px" y="0px"
	 viewBox="0 0 2773 1738.3" style="enable-background:new 0 0 2773 1738.3;" xml:space="preserve">
<style type="text/css">
	.st0{fill:none;stroke:#000000;stroke-width:0.5;}
	.st1{font-family:'SegoeUI-Bold';}
	.st2{font-size:20px;}
	.st3{font-family:'SegoeUI';}
	.st4{opacity:0.4;fill:#00AEEF;enable-background:new    ;}
	.st5{fill:#27AAE1;}
	.st6{fill:none;stroke:#27AAE1;stroke-width:0.577;}
	.st7{fill:#181725;}
</style>
<g id="trash" transform="translate(-263 -291.75)">
	<g id="Notes">
		<line id="Линия_1" class="st0" x1="263" y1="292" x2="3036" y2="292"/>
		<text transform="matrix(1 0 0 1 263 322)" class="st1 st2">Weight/Scale Variations</text>
		<text transform="matrix(1 0 0 1 518.686 322)" class="st3 st2">Ultralight</text>
		<text transform="matrix(1 0 0 1 837.443 322)" class="st3 st2">Thin</text>
		<text transform="matrix(1 0 0 1 1131.0649 322)" class="st3 st2">Light</text>
		<text transform="matrix(1 0 0 1 1416.3879 322)" class="st3 st2">Regular</text>
		<text transform="matrix(1 0 0 1 1709.7681 322)" class="st3 st2">Medium</text>
		<text transform="matrix(1 0 0 1 2001.644 322)" class="st3 st2">Semibold</text>
		<text transform="matrix(1 0 0 1 2320.0779 322)" class="st3 st2">Bold</text>
		<text transform="matrix(1 0 0 1 2609.644 322)" class="st3 st2">Heavy</text>
		<text transform="matrix(1 0 0 1 2910.5679 322)" class="st3 st2">Black</text>
		<line id="Линия_2" class="st0" x1="263" y1="1903" x2="3036" y2="1903"/>
		<g id="Сгруппировать_2" transform="translate(263 1933)">
			<path id="Контур_84" d="M9.2,0.8c4.3,0,7.9-3.5,7.9-7.9c0-4.3-3.6-7.9-7.9-7.9s-7.8,3.5-7.9,7.9C1.4-2.7,4.9,0.8,9.2,0.8z
				 M9.2-0.7C5.7-0.6,2.9-3.5,2.9-7c0,0,0,0,0-0.1c0-3.5,2.8-6.4,6.3-6.4c0,0,0,0,0.1,0c3.5,0,6.4,2.8,6.4,6.4l0,0
				C15.7-3.5,12.8-0.7,9.2-0.7C9.3-0.7,9.3-0.7,9.2-0.7z M9.2-3.4c0.5,0,0.7-0.3,0.7-0.8v-2.1h2.2C12.7-6.3,13-6.6,13-7
				s-0.3-0.7-0.8-0.7H10V-10c0-0.5-0.3-0.8-0.7-0.8S8.5-10.5,8.5-10v2.2H6.3C5.8-7.8,5.5-7.5,5.5-7s0.4,0.7,0.8,0.7h2.2v2.1
				C8.5-3.8,8.8-3.4,9.2-3.4L9.2-3.4z"/>
		</g>
		<g id="Сгруппировать_3" transform="translate(281.506 1933)">
			<path id="Контур_85" d="M11.7,2.9c5.5,0,9.9-4.5,10-10c0-5.5-4.5-9.9-10-10c-5.5,0-9.9,4.5-10,10C1.8-1.6,6.2,2.9,11.7,2.9
				z M11.7,1.3C7.1,1.3,3.4-2.4,3.4-7c0,0,0,0,0-0.1c0-4.6,3.7-8.3,8.2-8.3c0,0,0,0,0.1,0c4.6,0,8.3,3.7,8.3,8.3l0,0
				C20-2.5,16.3,1.2,11.7,1.3C11.8,1.3,11.7,1.3,11.7,1.3z M11.7-2.4c0.5,0,0.8-0.3,0.8-0.8v-0.1v-2.9h3.1c0.5,0,0.9-0.3,0.9-0.8
				c0-0.4-0.3-0.8-0.8-0.8h-0.1h-3.1v-3.1c0.1-0.4-0.2-0.9-0.7-0.9h-0.1c-0.5,0-0.8,0.4-0.8,0.9v3.1h-3C7.4-7.9,7-7.6,6.9-7.2v0.1
				c0,0.5,0.4,0.8,0.9,0.8h3v2.9C10.9-2.8,11.2-2.4,11.7-2.4L11.7-2.4z"/>
		</g>
		<g id="Сгруппировать_4" transform="translate(304.924 1933)">
			<path id="Контур_86" d="M15,5.7C22,5.6,27.7,0,27.7-7C27.6-14,22-19.7,15-19.7S2.3-14,2.3-7S8,5.6,15,5.7z M15,3.9
				C9,3.9,4.1-1,4.1-7l0,0c0-6,4.8-10.9,10.8-10.9c0,0,0,0,0.1,0c6,0,10.9,4.9,10.9,10.9l0,0C25.9-1,21,3.8,15,3.9L15,3.9L15,3.9z
				 M15-1.1c0.5,0,0.9-0.4,0.9-0.9v-0.1v-4.1h4.2c0.5,0.1,0.9-0.3,1-0.8v-0.1c0-0.5-0.4-0.9-0.9-0.9h-0.1h-4.2v-4.2
				c0.1-0.5-0.3-0.9-0.8-1H15c-0.5,0-0.9,0.4-0.9,0.9v0.1V-8H9.8c-0.5-0.1-1,0.3-1,0.8v0.1c0,0.5,0.4,0.9,0.9,0.9h0.1H14v4.1
				c-0.1,0.5,0.3,0.9,0.8,1C14.9-1.1,14.9-1.1,15-1.1z"/>
		</g>
		<text transform="matrix(1 0 0 1 263 1953)" class="st1 st2">Design Variations</text>
		<text transform="matrix(1 0 0 1 263 1971)" class="st3 st2">Symbols are supported in up to nine weights and three scales.</text>
		<text transform="matrix(1 0 0 1 263 1989)" class="st3 st2">For optimal layout with text and other symbols, vertically align</text>
		<text transform="matrix(1 0 0 1 263 2007)" class="st3 st2">symbols with the adjacent text.</text>
		<rect id="Прямоугольник_3" x="776" y="1919" class="st4" width="3" height="14"/>
		<g id="Сгруппировать_5" transform="translate(779 1933)">
			<path id="Контур_87" d="M10.5,0h1.8L7.2-14.1H5.4L0.2,0H2l1.4-4H9L10.5,0z M6.3-12L6.3-12l2.3,6.4H4L6.3-12z"/>
		</g>
		<rect id="Прямоугольник_4" x="791.6" y="1919" class="st4" width="3" height="14"/>
		<text transform="matrix(1 0 0 1 776 1953)" class="st1 st2">Margins</text>
		<text transform="matrix(1 0 0 1 776 1971)" class="st3 st2">Leading and trailing margins on the left and right side of each symbol</text>
		<text transform="matrix(1 0 0 1 776 1989)" class="st3 st2">can be adjusted by modifying the width of the blue rectangles.</text>
		<text transform="matrix(1 0 0 1 776 2007)" class="st3 st2">Modifications are automatically applied proportionally to all</text>
		<text transform="matrix(1 0 0 1 776 2025)" class="st3 st2">scales and weights.</text>
		<g id="Сгруппировать_6" transform="translate(1289 1933)">
			<path id="Контур_88" d="M2.8,3.1l1.5,1.5C5,5.4,6.1,5.4,6.8,4.8C6.9,4.7,7,4.6,7.1,4.5L17.3-6.7c0.4,0.3,0.9,0.3,1.3,0.2
				l1-0.2L20.3-6v0.5c-0.1,0.6,0.2,1.1,0.6,1.4l0.8,0.8c0.4,0.5,1.1,0.5,1.5,0.1l0.1-0.1l3.3-3.3C27-6.8,27-7.5,26.6-8l-0.1-0.1
				l-0.8-0.8c-0.3-0.4-0.9-0.7-1.4-0.6l-0.5,0.1l-0.7-0.7l0.3-1.1c0.1-0.6-0.1-1.3-0.6-1.6l-2.4-2.4c-3.5-3.5-8.1-3.4-11.2-0.3
				c-0.4,0.4-0.5,1-0.2,1.4s0.9,0.6,1.4,0.4c1.5-0.4,3.2-0.2,4.5,0.7l-0.6,1.6c-0.2,0.5-0.2,1,0,1.5L3,0.4C2.2,0.9,2,2,2.5,2.8
				C2.6,2.9,2.7,3,2.8,3.1z M10.7-15.1c2.6-2,6.2-1.7,8.4,0.7l2.6,2.6c0.2,0.2,0.3,0.5,0.2,0.7l-0.4,1.6L23.1-8H24
				c0.2-0.1,0.5,0,0.6,0.2l0.6,0.6l-2.8,2.7l-0.6-0.6c-0.2-0.1-0.3-0.4-0.2-0.6l0.1-1l-1.6-1.6L18.5-8c-0.2,0.1-0.5,0-0.7-0.2
				l-2.2-2.2c-0.2-0.2-0.3-0.5-0.1-0.7l0.9-2.3c-1.4-1.6-3.7-2.3-5.8-1.7c-0.1,0-0.1,0-0.2,0C10.6-15,10.6-15.1,10.7-15.1L10.7-15.1
				z M4.1,2.4c-0.5-0.5-0.3-0.8,0-1.1l11-10.1l1.2,1.2L6.2,3.3c-0.3,0.4-0.7,0.4-1,0.2C5.1,3.5,5.1,3.4,5,3.4L4.1,2.4z"/>
		</g>
		<text transform="matrix(1 0 0 1 1289 1953)" class="st1 st2">Exporting</text>
		<text transform="matrix(1 0 0 1 1289 1971)" class="st3 st2">Symbols should be outlined when exporting to ensure the</text>
		<text transform="matrix(1 0 0 1 1289 1989)" class="st3 st2">design is preserved when submitting to Xcode.</text>
		<text transform="matrix(1 0 0 1 2910.4819 1933)" class="st3 st2">Template v.1.0</text>
		<text transform="matrix(1 0 0 1 2847.074 1951)" class="st3 st2">Generated from trash</text>
		<text transform="matrix(1 0 0 1 2848.373 1969)" class="st3 st2">Typeset at 100 points</text>
		<text transform="matrix(1 0 0 1 263 726)" class="st3 st2">Small</text>
		<text transform="matrix(1 0 0 1 263 1156)" class="st3 st2">Medium</text>
		<text transform="matrix(1 0 0 1 263 1586)" class="st3 st2">Large</text>
	</g>
	<g id="Guides">
		<g id="H-reference" transform="translate(339 696)">
			<path id="Контур_89" class="st5" d="M54.9,0h2.7l-27-70.5h-2.5L1,0h2.7L13-24.5h32.8L54.9,0z M29.2-67.1h0.2l15.4,40.4h-31
				L29.2-67.1z"/>
		</g>
		<line id="Baseline-S" class="st6" x1="263" y1="696" x2="3036" y2="696"/>
		<line id="Capline-S" class="st6" x1="263" y1="625.5" x2="3036" y2="625.5"/>
		<g id="H-reference-2" transform="translate(339 1126)">
			<path id="Контур_90" class="st5" d="M54.9,0h2.7l-27-70.5h-2.5L1,0h2.7L13-24.5h32.8L54.9,0z M29.2-67.1h0.2l15.4,40.4h-31
				L29.2-67.1z"/>
		</g>
		<line id="Baseline-M" class="st6" x1="263" y1="1126" x2="3036" y2="1126"/>
		<line id="Capline-M" class="st6" x1="263" y1="1055.5" x2="3036" y2="1055.5"/>
		<g id="H-reference-3" transform="translate(339 1556)">
			<path id="Контур_91" class="st5" d="M54.9,0h2.7l-27-70.5h-2.5L1,0h2.7L13-24.5h32.8L54.9,0z M29.2-67.1h0.2l15.4,40.4h-31
				L29.2-67.1z"/>
		</g>
		<line id="Baseline-L" class="st6" x1="263" y1="1556" x2="3036" y2="1556"/>
		<line id="Capline-L" class="st6" x1="263" y1="1485.5" x2="3036" y2="1485.5"/>
		<rect id="left-margin" x="1363.2" y="1030.8" class="st4" width="7.5" height="119.3"/>
		<rect id="right-margin" x="1528.9" y="1030.7" class="st4" width="7.5" height="119.3"/>
	</g>
	<g id="Symbols">
		<g id="Black-L" transform="translate(2857.69 1556)">
			<path id="Контур_92" d="M124.5,14.4l3.9-87.5h4.7c5,0,8.6-3.5,8.6-8.4s-3.7-8.3-8.6-8.3h-25.4v-5.8
				c0-11.8-8.4-19.5-22.4-19.5H66.1c-13.9,0-22.4,7.7-22.4,19.5v5.8H18.3c-5,0-8.6,3.4-8.6,8.3c0,5,3.7,8.4,8.6,8.4H23l4,87.5
				c0.5,12.1,7.5,18.1,19.5,18.1H105C116.9,32.5,123.9,26.4,124.5,14.4z M61.3-95.2c0-3,2.3-5.1,5.6-5.1h17.7c3.3,0,5.5,2.1,5.6,5.1
				l0.1,5.3H61.2L61.3-95.2z M49,15.4c-3.1,0-4.8-2-4.9-5.7l-3.8-82.8H111l-3.7,82.8c-0.1,3.7-1.8,5.7-4.9,5.7L49,15.4z M93.9,7.4
				c3.2,0,5.6-2.7,5.7-6.4l1.8-59.5c0.1-3.6-2.3-6.4-5.5-6.4S90.1-62,90-58.5L88.2,0.9C88.1,4.5,90.6,7.4,93.9,7.4z M57.5,7.4
				c3.3,0,5.9-2.9,5.7-6.5l-1.8-59.4c-0.1-3.5-2.7-6.4-5.9-6.4s-5.7,2.8-5.5,6.4L51.8,1C51.9,4.7,54.3,7.4,57.5,7.4L57.5,7.4z
				 M75.7,7.4c3.1,0,5.7-2.9,5.7-6.3v-59.6c0-3.5-2.6-6.3-5.7-6.3S70-61.9,70-58.5V1C70,4.5,72.6,7.4,75.7,7.4z"/>
		</g>
		<g id="Heavy-L" transform="translate(2562.27 1556)">
			<path id="Контур_93" d="M121.9,14.5l4.1-88.8h5.6c4,0.2,7.4-2.9,7.6-6.9c0-0.2,0-0.3,0-0.5c0.1-4-3.1-7.3-7.1-7.3
				c-0.2,0-0.3,0-0.5,0h-26.4v-6.7c0-11-7.9-18.2-20.7-18.2H64.2c-12.8,0-20.7,7.2-20.7,18.2v6.7H17.2c-4-0.2-7.4,2.9-7.6,6.9
				c0,0.1,0,0.3,0,0.4c-0.1,4,3.1,7.3,7.1,7.4c0.1,0,0.3,0,0.4,0h5.6l4,88.9c0.5,11.2,7.2,17.1,18.4,17.1h58.2
				C114.6,31.7,121.4,25.7,121.9,14.5z M59-95.3c0-3.3,2.5-5.5,6-5.5h18.8c3.6,0,6,2.2,6,5.5l0.1,6.2h-31L59-95.3z M47.4,16.7
				c-3.3,0-5.3-2.2-5.4-6l-4-85.1h72.7l-3.9,85.1c-0.1,3.8-2.1,6-5.5,6L47.4,16.7z M92.8,7.8c2.8,0,5-2.4,5.1-5.7l1.9-61.5
				c0.1-3.2-2.1-5.8-5-5.8c-2.8,0-5.1,2.5-5.3,5.7L87.6,2C87.5,5.2,89.8,7.8,92.8,7.8z M56.1,7.8c3,0,5.2-2.6,5.1-5.9l-1.9-61.4
				c-0.1-3.2-2.4-5.7-5.3-5.7c-2.9,0-5.1,2.5-5,5.8l1.9,61.5C51,5.4,53.2,7.8,56.1,7.8L56.1,7.8z M74.4,7.8c2.8,0,5.1-2.6,5.1-5.7
				v-61.6c0.1-3-2.2-5.5-5.1-5.7c-3,0.2-5.2,2.7-5.1,5.7V2.1C69.3,5.2,71.6,7.8,74.4,7.8L74.4,7.8z"/>
		</g>
		<g id="Bold-L" transform="translate(2267.03 1556)">
			<path id="Контур_94" d="M119,14.7l4.2-90.3h6.6c3.4,0.1,6.2-2.5,6.3-5.9c0-0.1,0-0.2,0-0.3c0-3.4-2.7-6.2-6-6.2
				c-0.1,0-0.2,0-0.3,0h-27.4v-7.7c0-10.2-7.2-16.9-18.8-16.9H62.2c-11.6,0-18.8,6.7-18.8,16.9v7.7H16c-3.4-0.1-6.3,2.6-6.3,6
				c0,0.1,0,0.1,0,0.2c0,3.4,2.7,6.2,6.1,6.3c0.1,0,0.2,0,0.3,0h6.6l4.2,90.4C27.3,25,33.7,30.8,44,30.8h58
				C112.1,30.8,118.6,24.9,119,14.7z M56.4-95.4c0-3.5,2.6-5.9,6.4-5.9H83c3.8,0,6.4,2.4,6.4,5.9v7.3h-33V-95.4z M45.7,18.2
				c-3.5,0-5.9-2.5-6-6.3l-4.1-87.5h74.8l-4,87.5c-0.2,3.8-2.5,6.3-6.1,6.3H45.7z M91.5,8.3c2.5,0,4.4-2.1,4.5-4.9l1.9-63.7
				c0.2-2.5-1.6-4.8-4.2-5c-0.1,0-0.2,0-0.2,0c-2.4,0-4.4,2.2-4.5,5L87,3.2c-0.2,2.5,1.6,4.8,4.2,5C91.3,8.2,91.4,8.2,91.5,8.3
				L91.5,8.3z M54.4,8.3C57,8.2,59,6,58.9,3.5c0-0.1,0-0.2,0-0.2l-2-63.6c-0.1-2.7-2.1-5-4.5-5c-2.5,0.1-4.5,2.2-4.4,4.7
				c0,0.1,0,0.2,0,0.3l2,63.7C50.1,6.2,52,8.3,54.4,8.3L54.4,8.3z M72.9,8.3c2.6-0.1,4.6-2.3,4.5-4.9v-63.7c0.1-2.6-1.9-4.8-4.5-5
				c-2.6,0.2-4.6,2.4-4.5,5V3.3C68.4,5.9,70.4,8.1,72.9,8.3L72.9,8.3z"/>
		</g>
		<g id="Semibold-L" transform="translate(1971.32 1556)">
			<path id="Контур_95" d="M117.1,14.8l4.3-91.4h7.3c3,0.1,5.4-2.3,5.5-5.2c0-0.1,0-0.1,0-0.2c0-3-2.3-5.4-5.3-5.4
				c-0.1,0-0.1,0-0.2,0h-28.2v-8.4c0-9.6-6.7-16-17.5-16H60.7c-10.8,0-17.5,6.3-17.5,16v8.4h-28c-3,0-5.5,2.3-5.5,5.3v0.1
				c0,3,2.4,5.4,5.4,5.4h0.1h7.3l4.3,91.4c0.4,9.6,6.6,15.3,16.3,15.3h57.7C110.4,30.2,116.6,24.4,117.1,14.8z M54.7-95.4
				c0-3.6,2.7-6.3,6.7-6.3h21c4,0,6.7,2.6,6.7,6.3v8H54.7V-95.4z M44.4,19.2c-3.6,0-6.2-2.7-6.3-6.5l-4.3-89.3h76.3l-4.2,89.3
				c-0.2,3.9-2.7,6.5-6.4,6.5L44.4,19.2z M90.6,8.6c2.2,0,3.9-1.9,4-4.4l2-65.2c0.2-2.3-1.5-4.3-3.8-4.5c-0.1,0-0.1,0-0.2,0
				c-2.3,0.1-4.1,2.1-4.1,4.4L86.6,4.1c-0.2,2.3,1.4,4.3,3.7,4.5C90.4,8.6,90.5,8.6,90.6,8.6z M53.4,8.6c2.3-0.1,4.1-2.1,4-4.4
				c0-0.1,0-0.1,0-0.2l-1.9-65.1c0-2.3-1.8-4.3-4.1-4.4c-2.3,0.1-4,2-4,4.3c0,0.1,0,0.2,0,0.2l2,65.2C49.4,6.7,51.1,8.6,53.4,8.6z
				 M72,8.6c2.3-0.1,4.1-2.1,4.1-4.4V-61c0.1-2.3-1.7-4.3-4.1-4.4c-2.4,0.1-4.2,2.1-4.1,4.4V4.2C67.8,6.5,69.6,8.5,72,8.6L72,8.6z"
				/>
		</g>
		<g id="Medium-L" transform="translate(1675.39 1556)">
			<path id="Контур_96" d="M115.6,14.9l4.4-92.1h7.8c2.6,0,4.8-2,4.8-4.7c0-0.1,0-0.1,0-0.2c0-2.6-2.1-4.8-4.7-4.8h-0.1H99.1
				v-9c0-9.2-6.4-15.2-16.5-15.2h-23c-10.2,0-16.5,6.1-16.5,15.2v9H14.6c-2.7,0-4.9,2.1-4.9,4.8l0,0c0,2.7,2.2,4.8,4.8,4.8
				c0,0,0,0,0.1,0h7.9l4.4,92.2c0.4,9.1,6.4,14.8,15.6,14.8H100C109.1,29.7,115.1,24,115.6,14.9z M53.4-95.4c0-3.8,2.8-6.5,6.9-6.5
				H82c4.1,0,6.9,2.7,6.9,6.5v8.5H53.4V-95.4z M43.5,20c-3.7,0-6.4-2.8-6.6-6.7l-4.4-90.6h77.4l-4.2,90.6c0,3.7-2.9,6.7-6.6,6.7H99
				L43.5,20z M89.9,8.8c2.1,0,3.6-1.7,3.7-4.1l2-66.3c0.2-2.1-1.3-3.9-3.4-4.1c-0.1,0-0.1,0-0.2,0c-2.1,0.1-3.8,1.9-3.7,4.1l-2,66.3
				C86.1,6.8,87.7,8.7,89.9,8.8C89.8,8.8,89.8,8.8,89.9,8.8z M52.5,8.8c2.1-0.1,3.7-1.8,3.7-3.9c0-0.1,0-0.2,0-0.3l-2-66.3
				c0-2.1-1.6-3.9-3.7-4.1c-2.1,0.1-3.7,1.8-3.6,3.8c0,0.1,0,0.2,0,0.3l2,66.3C48.9,7.1,50.4,8.8,52.5,8.8L52.5,8.8z M71.2,8.8
				c2.1-0.1,3.8-1.9,3.8-4v-66.4c0.1-2.2-1.6-4-3.8-4.1c-2.1,0.1-3.8,1.9-3.7,4.1V4.8C67.4,6.9,69.1,8.7,71.2,8.8L71.2,8.8z"/>
		</g>
		<g id="Regular-L" transform="translate(1379.65 1556)">
			<path id="Контур_97" d="M113.6,15l4.5-93.2h8.5c2.2,0,4-1.8,4-4.1c0-2.2-1.8-4-4-4.1H97.3v-9.7c0-8.6-6-14.3-15.2-14.3
				H58.3c-9.3,0-15.2,5.7-15.2,14.3v9.7H13.7c-2.2,0-4,1.8-4.1,4.1c0,2.2,1.8,4,4.1,4.1h8.5L26.7,15c0.4,8.4,6.2,14,14.7,14h57.4
				C107.3,29.1,113.2,23.4,113.6,15z M51.7-95.5c0-4,2.9-6.8,7.2-6.8h22.6c4.3,0,7.3,2.8,7.3,6.8v9.2H51.7V-95.5z M42.2,21
				c-3.8,0-6.9-3-7-6.8l-4.5-92.3h78.9l-4.3,92.3c-0.1,3.8-3.2,6.9-7.1,6.8C98.2,21,42.2,21,42.2,21z M89,9.2
				c1.9-0.1,3.3-1.6,3.3-3.5V5.6l2-67.8c0.2-1.8-1.2-3.4-3-3.6c-0.1,0-0.1,0-0.2,0c-1.8,0.1-3.3,1.7-3.2,3.5l-2,67.8
				C85.7,7.3,87.1,9,89,9.2C88.9,9.2,88.9,9.2,89,9.2z M51.4,9.2c1.9-0.1,3.3-1.7,3.2-3.6V5.5l-2.1-67.8c0-1.8-1.4-3.4-3.2-3.5
				c-1.8,0-3.2,1.5-3.2,3.3c0,0.1,0,0.2,0,0.3l2,67.8C48.1,7.5,49.5,9.1,51.4,9.2L51.4,9.2z M70.2,9.2c1.9-0.1,3.4-1.7,3.3-3.6
				v-67.8c0.1-1.9-1.4-3.5-3.3-3.6c-1.9,0.1-3.4,1.7-3.3,3.6V5.6C66.9,7.5,68.3,9.1,70.2,9.2L70.2,9.2z"/>
		</g>
		<g id="Light-L" transform="translate(1083.6 1556)">
			<path id="Контур_98" d="M111.7,15.8l4.8-95.3h9.8c1.7,0,3.1-1.3,3.1-3v-0.1c0-1.7-1.3-3.1-3-3.1c0,0,0,0-0.1,0H96v-10.1
				c0-8-5.7-13.5-14.5-13.5h-24c-8.8,0-14.5,5.6-14.5,13.5v10.1H12.8c-1.7,0-3.1,1.4-3.1,3.1s1.4,3.1,3.1,3.1h9.9l4.8,95.3
				c0.2,7.3,6.2,13.1,13.5,13c0.1,0,0.1,0,0.2,0H98C105.4,29.1,111.5,23.3,111.7,15.8C111.7,15.9,111.7,15.8,111.7,15.8z M49.6-95.5
				c0-4.4,3.3-7.7,8.3-7.7h23.3c5,0,8.3,3.2,8.3,7.7v9.8H49.6V-95.5z M41.7,22.7c-4.2,0-7.6-3.3-7.8-7.5l-4.8-94.6h80.8l-4.6,94.6
				c-0.1,4.2-3.6,7.5-7.8,7.5L41.7,22.7z M88.5,9.7c1.5,0,2.7-1.3,2.6-2.7l0,0l2.1-70.2c0.1-1.5-1-2.7-2.4-2.8c-0.1,0-0.1,0-0.2,0
				c-1.5,0.1-2.6,1.3-2.6,2.7l-2.1,70c-0.2,1.5,0.9,2.8,2.4,2.9C88.4,9.7,88.4,9.7,88.5,9.7z M50.7,9.7c1.5-0.1,2.6-1.3,2.5-2.8V6.8
				l-2.1-70.1c0-1.5-1.2-2.7-2.6-2.7c-1.4,0-2.6,1.2-2.5,2.7c0,0.1,0,0.1,0,0.2l2.2,70.2c-0.1,1.4,1,2.7,2.4,2.8
				C50.6,9.7,50.6,9.7,50.7,9.7z M69.6,9.7c1.5-0.1,2.7-1.3,2.6-2.8v-70.2c0.1-1.5-1.1-2.7-2.6-2.8l0,0c-1.5,0-2.7,1.3-2.6,2.8V6.8
				C66.9,8.3,68.1,9.6,69.6,9.7L69.6,9.7z"/>
		</g>
		<g id="Thin-L" transform="translate(787.745 1556)">
			<path id="Контур_99" d="M109.2,16.9l5.1-98h11.5c1,0,1.8-0.7,1.9-1.7v-0.1c0-1-0.8-1.8-1.8-1.9c0,0,0,0-0.1,0H94.4v-10.6
				c0-7.1-5.5-12.5-13.5-12.5H56.5c-8.1,0-13.4,5.4-13.4,12.5v10.6H11.6c-1,0-1.9,0.8-1.9,1.9c0,1,0.8,1.9,1.9,1.9l0,0h11.6l5.1,98
				c0.4,6.5,5.8,11.7,12.4,11.6h56.1C103.3,28.5,108.8,23.4,109.2,16.9z M47-95.4c0-5.1,3.8-8.9,9.6-8.9h24.2c5.8,0,9.7,3.8,9.7,8.9
				v10.5H47V-95.4z M40.8,24.8c-4.6-0.1-8.4-3.7-8.6-8.3l-5.1-97.7h83.3l-5,97.7c-0.3,4.6-4.1,8.2-8.7,8.3H40.8z M87.8,10.3
				c1,0,1.8-0.7,1.8-1.7l0,0l2.3-73.3c0-1-0.7-1.8-1.7-1.9c0,0,0,0-0.1,0c-1,0-1.7,0.8-1.8,1.7L86.1,8.4c-0.1,1,0.6,1.8,1.6,1.9
				C87.7,10.3,87.7,10.3,87.8,10.3z M49.7,10.3c1,0,1.8-0.8,1.8-1.8V8.4l-2.3-73.2c-0.1-1-0.9-1.7-1.9-1.7s-1.7,0.8-1.7,1.8
				c0,0,0,0,0,0.1l2.3,73.3c0,0.9,0.7,1.7,1.7,1.7C49.6,10.3,49.6,10.3,49.7,10.3z M68.8,10.3c1,0,1.7-0.8,1.8-1.8v-73.3
				c0-1-0.7-1.8-1.7-1.8h-0.1c-1,0-1.8,0.8-1.8,1.8V8.5C67,9.5,67.8,10.3,68.8,10.3z"/>
		</g>
		<g id="Ultralight-L" transform="translate(491.474 1556)">
			<path id="Контур_100" d="M107.9,17.4l5.3-99.5h12.4c0.6,0,1.2-0.4,1.2-1.1v-0.1c0-0.7-0.5-1.2-1.1-1.2h-0.1h-32v-10.9
				c0-6.7-5.3-12-13-12H56c-7.7,0-12.9,5.3-12.9,12v10.9H11c-0.7,0-1.3,0.5-1.3,1.2s0.6,1.2,1.2,1.2c0,0,0,0,0.1,0h12.5l5.3,99.5
				c0.5,6.1,5.5,10.8,11.6,10.9h55.7C102.3,28.3,107.4,23.5,107.9,17.4z M45.6-95.4c0-5.4,4.1-9.5,10.3-9.5h24.7
				c6.3,0,10.4,4.1,10.4,9.5v10.9H45.6V-95.4z M40.4,25.9c-4.8-0.1-8.8-3.8-9.2-8.6L26.1-82h84.6l-5.3,99.3
				c-0.3,4.8-4.3,8.5-9.1,8.6L40.4,25.9z M87.4,10.6c0.7,0.1,1.3-0.5,1.4-1.2l2.4-75c0-0.7-0.5-1.3-1.3-1.4l0,0
				c-0.7,0-1.3,0.5-1.3,1.1c0,0,0,0,0,0.1l-2.4,75C86.2,10.1,86.7,10.6,87.4,10.6z M49.2,10.6c0.7,0,1.3-0.6,1.3-1.4V9.1L48-65.6
				c-0.1-0.7-0.7-1.3-1.4-1.2c-0.7,0-1.3,0.6-1.2,1.3l0,0l2.4,75C47.9,10.2,48.5,10.7,49.2,10.6L49.2,10.6L49.2,10.6z M68.3,10.6
				c0.7,0,1.3-0.6,1.3-1.3v-74.9c0-0.7-0.5-1.3-1.2-1.3h-0.1c-0.7,0-1.3,0.6-1.3,1.3l0,0v75C67.1,10.1,67.6,10.6,68.3,10.6
				L68.3,10.6z"/>
		</g>
		<g id="Black-M" transform="translate(2873.34 1126)">
			<path id="Контур_101" d="M98.8,3.4l3-67.1h3.1c4.4,0,7.7-3,7.7-7.4c0-4.3-3.2-7.3-7.7-7.3H86.1v-3.4
				c0-9.8-7.3-16.3-19.2-16.3H53.3c-12,0-19.2,6.5-19.2,16.3v3.4h-19c-4.4,0-7.7,3-7.7,7.3c0,4.4,3.2,7.4,7.7,7.4h3.2l3,67.1
				c0.4,10,6.1,14.7,16.1,14.7h45.4C92.7,18.2,98.4,13.4,98.8,3.4z M49.5-81.6c0-2.3,1.8-3.9,4.3-3.9h12.5c2.5,0,4.3,1.6,4.3,3.9
				l0.1,3.2H49.3L49.5-81.6z M39.8,3.1c-2.3,0-3.4-1.5-3.6-4.4l-2.8-62.4h53.2L83.9-1.3c-0.1,2.9-1.2,4.4-3.5,4.4L39.8,3.1z
				 M74.1-2.5c2.7,0,4.8-2.3,4.9-5.5l1.5-44.7c0.1-3.1-2-5.5-4.7-5.5s-4.9,2.4-5.1,5.5L69.2-8.1C69-4.9,71.2-2.5,74.1-2.5z M46-2.5
				c2.8,0,5-2.4,4.9-5.6l-1.4-44.6c-0.1-3-2.3-5.5-5.1-5.5c-2.7,0-4.8,2.4-4.7,5.5L41.2-8C41.3-4.8,43.4-2.5,46-2.5z M60.1-2.5
				c2.6,0,4.8-2.4,4.8-5.4v-44.9c0-3-2.2-5.4-4.8-5.4s-4.8,2.4-4.8,5.4v44.9C55.2-4.9,57.4-2.5,60.1-2.5z"/>
		</g>
		<g id="Heavy-M" transform="translate(2577.88 1126)">
			<path id="Контур_102" d="M96.6,3.4l3.1-68.1h3.8c3.5,0.2,6.5-2.5,6.7-6c0-0.2,0-0.4,0-0.6c0-3.8-2.8-6.4-6.7-6.4H83.7V-82
				c0-9.1-6.7-15.2-17.6-15.2H51.5c-10.9,0-17.6,6.1-17.6,15.2v4.3H14.2c-3.9,0-6.7,2.7-6.7,6.4c-0.1,3.5,2.7,6.4,6.2,6.5
				c0.2,0,0.4,0,0.6,0H18l3,68.2c0.4,9.3,5.9,14,15.1,14h45.3C90.7,17.4,96.1,12.7,96.6,3.4z M47.5-81.7c0-2.4,1.9-4.1,4.5-4.1h13.6
				c2.7,0,4.5,1.6,4.5,4.1l0.1,4H47.4L47.5-81.7z M38.2,4.1c-2.4,0-3.8-1.6-3.9-4.5l-3-64.3h54.9L83.3-0.4c-0.1,2.9-1.5,4.5-3.9,4.5
				H38.2z M72.9-2.2c2.4,0,4.3-2.1,4.4-4.9l1.5-46.2c0.1-2.8-1.8-5-4.3-5c-2.6,0.2-4.6,2.3-4.5,4.9L68.5-7.2c-0.2,2.5,1.6,4.8,4.1,5
				C72.7-2.2,72.8-2.2,72.9-2.2z M44.7-2.2c2.5-0.1,4.5-2.2,4.5-4.8c0-0.1,0-0.2,0-0.3l-1.5-46.1c0-2.6-2-4.8-4.6-4.9
				c-2.4,0-4.3,2.2-4.2,5l1.5,46.2C40.4-4.2,42.2-2.2,44.7-2.2L44.7-2.2z M58.8-2.2c2.5-0.1,4.5-2.3,4.4-4.8v-46.4
				c0.1-2.6-1.8-4.7-4.4-4.9c-2.5,0.2-4.5,2.3-4.3,4.9V-7C54.3-4.5,56.3-2.4,58.8-2.2L58.8-2.2z"/>
		</g>
		<g id="Bold-M" transform="translate(2282.58 1126)">
			<path id="Контур_103" d="M94,3.3l3.2-69h4.5c3,0.1,5.5-2.2,5.7-5.2c0-0.1,0-0.2,0-0.4c0-3-2.3-5.4-5.3-5.5
				c-0.1,0-0.2,0-0.4,0H81.1v-5.4c0-8.4-6-13.9-15.7-13.9h-16c-9.7,0-15.7,5.5-15.7,13.9v5.4H13.1c-3-0.1-5.5,2.2-5.7,5.2
				c0,0.1,0,0.2,0,0.3c-0.1,3,2.3,5.5,5.4,5.6c0.1,0,0.2,0,0.3,0h4.5l3.2,69.1c0.4,8.5,5.6,13.1,14.1,13.1H80
				C88.4,16.5,93.6,11.9,94,3.3z M45.3-81.8c0-2.5,1.9-4.3,4.7-4.3h14.8c2.8,0,4.6,1.8,4.7,4.3v5H45.2L45.3-81.8z M36.4,5.2
				c-2.5,0-4.2-1.8-4.3-4.6L29-65.7h56.6l-3,66.3c-0.1,2.9-1.7,4.6-4.3,4.6C78.3,5.2,36.4,5.2,36.4,5.2z M71.6-1.8
				c2.2,0,3.8-1.8,3.9-4.3l1.5-48c0.2-2.2-1.4-4.1-3.6-4.3c-0.1,0-0.1,0-0.2,0c-2.3,0.2-4,2-4,4.3L67.8-6.2C67.6-4,69.3-2,71.6-1.8
				L71.6-1.8z M43.2-1.8c2.2-0.1,3.9-1.9,3.9-4.1c0-0.1,0-0.2,0-0.3l-1.5-48c0-2.3-1.7-4.1-4-4.3c-2.2,0.1-3.9,1.9-3.8,4.1
				c0,0.1,0,0.2,0,0.3l1.5,48C39.4-3.6,41-1.8,43.2-1.8z M57.4-1.8c2.2-0.1,4-2.1,3.9-4.3v-48c0.1-2.2-1.6-4.2-3.9-4.3
				c-2.3,0.1-4,2-3.9,4.3V-6C53.4-3.8,55.2-1.9,57.4-1.8z"/>
		</g>
		<g id="Semibold-M" transform="translate(1986.85 1126)">
			<path id="Контур_104" d="M92.2,3.3l3.2-69.8h5c2.6,0.1,4.8-2,4.9-4.7c0-0.1,0-0.1,0-0.2c0-2.6-2.1-4.8-4.7-4.8
				c-0.1,0-0.1,0-0.2,0H79.2v-6.1c0-7.9-5.5-13-14.5-13H48c-8.9,0-14.5,5.1-14.5,13v6.1H12.4c-2.7-0.1-4.9,2-4.9,4.7
				c0,0.1,0,0.1,0,0.2c0,2.7,2.1,4.8,4.7,4.9c0.1,0,0.1,0,0.2,0h5l3.3,69.8C21,11.3,26,15.9,34,15.9h45
				C86.9,15.9,91.8,11.3,92.2,3.3z M43.8-81.8c0-2.5,1.9-4.5,4.4-4.5c0.1,0,0.3,0,0.4,0h15.7c2.4-0.2,4.6,1.6,4.8,4.1
				c0,0.1,0,0.3,0,0.4v5.7H43.8V-81.8z M35.2,6.1c-2.6,0-4.4-1.9-4.6-4.8l-3.2-67.7h57.9L82.2,1.3c-0.1,2.9-1.9,4.8-4.6,4.8
				C77.6,6.1,35.2,6.1,35.2,6.1z M70.8-1.6c2-0.1,3.6-1.8,3.5-3.9l0,0l1.5-49.1c0.2-2-1.2-3.7-3.2-3.9c-0.1,0-0.2,0-0.2,0
				c-2,0.1-3.6,1.9-3.6,3.9L67.3-5.5c-0.2,2,1.3,3.7,3.2,3.9C70.6-1.6,70.7-1.6,70.8-1.6z M42.1-1.6c2-0.1,3.6-1.7,3.5-3.8
				c0-0.1,0-0.1,0-0.2l-1.5-49.1c0-2-1.5-3.7-3.6-3.9c-2,0.1-3.5,1.7-3.4,3.7c0,0.1,0,0.2,0,0.3l1.5,49.1
				C38.7-3.2,40.1-1.6,42.1-1.6z M56.4-1.6c2-0.1,3.6-1.9,3.5-3.9v-49.2c0.1-2-1.5-3.8-3.5-3.9c-2.1,0.1-3.6,1.8-3.6,3.9v49.2
				C52.8-3.4,54.4-1.7,56.4-1.6z"/>
		</g>
		<g id="Medium-M" transform="translate(1690.87 1126)">
			<path id="Контур_105" d="M90.9,3.3L94.2-67h5.4c2.4,0,4.3-1.9,4.3-4.2v-0.1c0-2.4-1.9-4.3-4.3-4.3h-0.1H77.9v-6.6
				c0-7.5-5.2-12.4-13.5-12.4H46.9c-8.3,0-13.5,4.8-13.5,12.4v6.6H11.8c-2.4,0-4.3,1.9-4.3,4.3l0,0c0,2.4,1.9,4.3,4.3,4.3l0,0h5.4
				l3.3,70.4c0.4,7.6,5.2,12.1,12.8,12.1h44.9C85.7,15.4,90.5,10.8,90.9,3.3z M42.6-81.9c0-2.5,2-4.6,4.5-4.6c0.1,0,0.2,0,0.3,0
				h16.3c2.5-0.2,4.7,1.7,4.9,4.2c0,0.1,0,0.3,0,0.4v6.2h-26V-81.9z M34.3,6.6c-2.6,0-4.8-2.1-4.8-4.8V1.7L26.2-67H85L81.9,1.8
				c-0.1,2.9-2.1,4.9-4.8,4.9L34.3,6.6z M70.1-1.4c1.8,0,3.1-1.5,3.2-3.6l1.5-50c0.2-1.8-1.2-3.4-3-3.6c-0.1,0-0.1,0-0.2,0
				c-1.9,0.1-3.3,1.7-3.3,3.6L66.9-5c-0.2,1.8,1.2,3.5,3,3.6C70-1.4,70-1.4,70.1-1.4z M41.3-1.4c1.9-0.1,3.3-1.6,3.2-3.5
				c0-0.1,0-0.1,0-0.2l-1.5-50c0-1.9-1.4-3.4-3.3-3.6c-1.8,0.1-3.2,1.6-3.2,3.4c0,0.1,0,0.2,0,0.2l1.5,50C38-3.1,39.4-1.5,41.3-1.4
				L41.3-1.4L41.3-1.4z M55.7-1.4C57.6-1.5,59-3.1,59-4.9V-55c0.1-1.9-1.4-3.5-3.3-3.6c-1.9,0.1-3.3,1.7-3.3,3.6v50.1
				C52.4-3,53.8-1.5,55.7-1.4L55.7-1.4z"/>
		</g>
		<g id="Regular-M" transform="translate(1395.11 1126)">
			<path class="st7" d="M15.5-34.8c1.3-0.5,2.8-0.8,4.4-0.8c1.5,0,3,0.3,4.4,0.8c1.3,0.5,2.7,1.3,3.7,2.2c1,1,1.8,2,2.5,3.4
				c0.5,1.2,0.8,2.5,0.8,3.9c0,1.3-0.3,2.7-1,3.9c-0.7,1.2-1.5,2.3-2.7,3.2c-1.2,0.8-2.3,1.7-3.9,2C16.2-13.7,9.6-9.2,5.1-3.2
				c-4.5,5.9-7,12.9-7,20.1v17.4c0,2.7,1.2,5.2,3.4,7c2.2,1.8,5,2.8,8,2.8h90.5c3,0,5.9-1,8-2.8c2.2-1.8,3.4-4.4,3.4-7V17.9
				c0-7.4-2.5-14.6-7.4-20.8c-4.7-6-11.6-10.7-19.3-13.4c-1.5-0.5-2.7-1.2-3.9-2c-1.2-0.8-2-2-2.7-3.2c-0.7-1.2-1-2.5-1-3.9
				c0-1.3,0.2-2.7,0.7-3.9s1.3-2.3,2.3-3.4c1-1,2.3-1.7,3.7-2.3c1.3-0.5,2.8-0.8,4.4-0.8s3,0.3,4.4,0.8c12.1,4,22.6,11.4,30,20.8
				s11.2,20.6,11.2,32.2v16.4c0,7.9-3.5,15.6-9.9,21.3s-15.1,8.7-24,8.7H9.5c-9,0-17.6-3.2-24-8.7c-6.4-5.9-9.9-13.4-9.9-21.4V16.9
				c0-11.2,3.9-22.1,10.9-31.3C-6.3-23.6,3.8-30.8,15.5-34.8z M54.7-135.5c12.1,0,23.5,4.2,32,11.7s13.2,17.6,13.2,28.3v19.9
				c0,10.6-4.7,20.8-13.2,28.3s-19.9,11.7-32,11.7s-23.5-4.2-32-11.7S9.5-64.8,9.5-75.5v-19.9c0-10.6,4.7-20.8,13.2-28.3
				C31.2-131.3,42.8-135.5,54.7-135.5z M54.7-115.6c-6,0-11.7,2.2-15.9,5.9c-4.2,3.7-6.7,8.9-6.7,14.1v19.9c0,5.4,2.3,10.4,6.7,14.1
				c4.2,3.7,10.1,5.9,15.9,5.9c6,0,11.7-2.2,15.9-5.9c4.2-3.7,6.7-8.9,6.7-14.1v-19.9c0-5.4-2.3-10.4-6.7-14.1
				C66.6-113.4,60.7-115.6,54.7-115.6z"/>
		</g>
		<g id="Light-M" transform="translate(1098.98 1126)">
			<path id="Контур_107" d="M87.4,4L91-68.9h7c1.5,0,2.8-1.3,2.8-2.8l0,0c0-1.5-1.2-2.8-2.8-2.8l0,0H74.9v-7.7
				c0-6.4-4.5-10.8-11.6-10.8H44.9c-7,0-11.5,4.4-11.5,10.8v7.7H10.3c-1.5,0-2.8,1.3-2.8,2.8c0,1.6,1.3,2.8,2.8,2.8h7L20.9,4
				c0.3,6.3,4.7,10.5,11.1,10.5h44.3c5.9,0.3,10.8-4.3,11.1-10.2C87.4,4.3,87.4,4.1,87.4,4z M39.4-81.9c0-3.2,2.3-5.5,5.9-5.5H63
				c3.5,0,6,2.3,6,5.5v7.4H39.4V-81.9z M32.5,8.9c-3.1,0-5.6-2.4-5.7-5.5l-3.6-72.3H85L81.5,3.4c-0.1,3.1-2.6,5.5-5.7,5.5H32.5z
				 M68.8-0.7c1.3,0,2.4-1.1,2.3-2.4c0,0,0,0,0-0.1l1.6-53.4c0.1-1.3-0.8-2.4-2.1-2.5c-0.1,0-0.1,0-0.2,0c-1.3,0.1-2.3,1.2-2.2,2.5
				L66.5-3.2c-0.1,1.3,0.9,2.4,2.1,2.5C68.7-0.7,68.7-0.7,68.8-0.7z M39.6-0.7c1.3,0,2.3-1.1,2.3-2.4c0-0.1,0-0.1,0-0.2l-1.6-53.3
				c0-1.3-1-2.4-2.3-2.5c-1.3,0-2.3,1.1-2.3,2.3c0,0.1,0,0.1,0,0.2l1.6,53.4C37.2-1.8,38.2-0.7,39.6-0.7C39.5-0.7,39.6-0.7,39.6-0.7
				z M54.2-0.7c1.3-0.1,2.4-1.2,2.3-2.5v-53.3c0-1.3-1-2.5-2.3-2.5c-1.3,0.1-2.4,1.2-2.3,2.5v53.3C51.8-1.8,52.9-0.7,54.2-0.7z"/>
		</g>
		<g id="Thin-M" transform="translate(803.029 1126)">
			<path id="Контур_108" d="M85.2,4.9l3.9-75.4h8.5c0.9,0,1.7-0.7,1.7-1.6v-0.1c0-0.9-0.8-1.7-1.7-1.7l0,0H73.5V-82
				c0-5.7-4.3-9.9-10.7-9.9H44c-6.4,0-10.6,4.2-10.6,9.9v8.1H9.2c-0.9,0-1.7,0.8-1.8,1.7c0,0.9,0.8,1.7,1.7,1.7l0,0h8.6l3.9,75.4
				c0.2,5.3,4.6,9.4,9.9,9.3h43.7C80.5,14.3,84.9,10.2,85.2,4.9z M37-81.9c0-3.8,2.8-6.6,7.1-6.6h18.6c4.3,0,7.2,2.8,7.2,6.6v8H37
				V-81.9z M31.8,10.8c-3.5,0-6.3-2.8-6.5-6.3l-3.9-75h64l-3.9,75c-0.2,3.5-3,6.2-6.5,6.3H31.8z M68.2-0.1c0.8,0,1.5-0.6,1.6-1.4
				v-0.1l1.8-56.2c0.1-0.9-0.6-1.6-1.5-1.7H70c-0.8,0-1.5,0.7-1.5,1.5l0,0L66.7-1.8C66.6-1,67.2-0.2,68-0.1
				C68.1-0.1,68.1-0.1,68.2-0.1z M38.7-0.1c0.9,0,1.6-0.8,1.6-1.7c0,0,0,0,0-0.1L38.5-58c0-0.9-0.7-1.6-1.6-1.6
				c-0.8,0-1.5,0.7-1.5,1.5v0.1l1.8,56.2c0,0.8,0.6,1.5,1.4,1.5C38.6-0.1,38.6-0.1,38.7-0.1z M53.5-0.1c0.8,0,1.5-0.7,1.5-1.6v-56.2
				c0.1-0.8-0.6-1.6-1.4-1.6h-0.1c-0.9,0-1.6,0.7-1.6,1.6l0,0v56.2C51.9-0.8,52.6-0.1,53.5-0.1z"/>
		</g>
		<g id="Ultralight-M" transform="translate(506.708 1126)">
			<path id="Контур_109" d="M84,5.4l4-76.6h9.3c0.6,0,1.1-0.4,1.2-1v-0.1c0-0.6-0.5-1.1-1.1-1.1c0,0,0,0-0.1,0H72.7v-8.4
				c0-5.3-4.2-9.4-10.2-9.4h-19c-6.1,0-10.2,4.1-10.2,9.4v8.4H8.7c-0.6,0-1.2,0.5-1.2,1.1s0.5,1.1,1.1,1.1h0.1h9.4l4.1,76.7
				c0.3,4.9,4.4,8.7,9.2,8.7h43.3C79.6,14.1,83.6,10.3,84,5.4z M35.7-81.9c0-4.1,3.1-7.1,7.8-7.1h19c4.7,0,7.8,3.1,7.8,7.1v8.4H35.7
				V-81.9z M31.4,11.8c-3.7,0-6.7-2.9-7-6.6l-4-76.5h65.2l-4,76.5c-0.2,3.7-3.3,6.5-6.9,6.6L31.4,11.8z M67.8,0.2
				c0.6,0,1.2-0.5,1.2-1.1l0,0l1.8-57.6c0-0.6-0.5-1.2-1.1-1.2s-1.1,0.4-1.2,1.1c0,0,0,0,0,0.1L66.7-1C66.7-0.4,67.2,0.2,67.8,0.2
				L67.8,0.2z M38.2,0.2c0.7,0,1.2-0.6,1.1-1.3l-1.9-57.5c0-0.6-0.6-1.1-1.2-1.1l0,0c-0.6,0-1.1,0.5-1.1,1.2c0,0,0,0,0,0.1L37-0.8
				C37.1-0.3,37.6,0.2,38.2,0.2L38.2,0.2z M53.1,0.2c0.6,0,1.1-0.6,1.1-1.2v-57.6c0-0.6-0.4-1.1-1.1-1.2c0,0,0,0-0.1,0
				c-0.6,0-1.2,0.5-1.2,1.1l0,0v57.6C51.9-0.3,52.4,0.2,53.1,0.2z"/>
		</g>
		<g id="Black-S" transform="translate(2886.43 696)">
			<path id="Контур_110" d="M77.3-5l2.3-52.6h2.5c3.1,0.2,5.7-2.1,5.9-5.2c0-0.2,0-0.4,0-0.6c0-3.4-2.5-5.7-6-5.7H67.3v-2.7
				c0-7.6-5.7-12.7-14.9-12.7H41.6c-9.3,0-14.9,5.1-14.9,12.7v2.7H11.8c-3.5,0-6,2.3-6,5.7c-0.1,3.1,2.3,5.7,5.4,5.8
				c0.2,0,0.4,0,0.6,0h2.5L16.6-5C17,2.8,21.4,6.5,29.2,6.5h35.5C72.5,6.5,77,2.8,77.3-5z M38.6-71.6c0-1.7,1.5-3.1,3.2-3
				c0.1,0,0.1,0,0.2,0h9.9c1.7-0.2,3.2,1.1,3.4,2.8c0,0.1,0,0.1,0,0.2l0.1,2.5H38.5L38.6-71.6z M31.1-5.2c-1.8,0-2.7-1.1-2.8-3.4
				l-2.2-49h41.8l-2.2,49c-0.1,2.3-1,3.4-2.8,3.4L31.1-5.2z M58-9.6c2.1,0,3.7-1.8,3.8-4.2l1.1-35.1c0.2-2.1-1.3-4.1-3.5-4.3
				c-0.1,0-0.1,0-0.2,0c-2.2,0.1-4,2-4,4.2l-1.1,35.1c-0.2,2.2,1.4,4.1,3.6,4.3C57.8-9.6,57.9-9.6,58-9.6L58-9.6z M36-9.6
				c2.2-0.1,3.9-1.9,3.8-4.1c0-0.1,0-0.2,0-0.3l-1.1-35c0-2.2-1.7-4.1-4-4.2c-2.1,0.1-3.8,1.9-3.7,4.1c0,0.1,0,0.1,0,0.2l1.1,35.1
				C32.3-11.4,33.9-9.6,36-9.6L36-9.6z M47-9.6c2.2-0.1,3.9-2,3.8-4.2V-49c0.1-2.2-1.6-4.1-3.8-4.2c-2.2,0.1-3.9,2-3.8,4.2v35.3
				C43.1-11.6,44.8-9.7,47-9.6L47-9.6z"/>
		</g>
		<g id="Heavy-S" transform="translate(2590.62 696)">
			<path id="Контур_111" d="M75.7-5.1l2.4-53.1H81c2.8,0.2,5.2-2,5.3-4.7c0-0.1,0-0.3,0-0.4c0.1-2.8-2.1-5.1-4.9-5.1
				c-0.1,0-0.3,0-0.4,0H65.6v-3.4c0-7.2-5.2-11.9-13.7-11.9H40.3c-8.5,0-13.8,4.7-13.8,11.9v3.4H11.2c-2.8-0.2-5.2,2-5.3,4.7
				c0,0.1,0,0.3,0,0.4c-0.1,2.8,2.1,5.1,4.9,5.2c0.1,0,0.3,0,0.4,0H14L16.4-5C16.7,2.3,21,6,28.3,6h35.5C71.1,6,75.4,2.2,75.7-5.1z
				 M37.3-71.6c0-1.8,1.5-3.2,3.2-3.1c0.1,0,0.2,0,0.2,0h10.6c1.7-0.2,3.3,1.1,3.5,2.9c0,0.1,0,0.2,0,0.2v3.1H37.3V-71.6z M29.9-4.5
				c-1.9,0-2.9-1.2-3-3.5l-2.3-50.2h42.9L65.2-8c-0.1,2.2-1.1,3.5-3,3.5H29.9z M57.1-9.4c2,0,3.4-1.7,3.5-3.9l1.1-36
				c0.2-2-1.3-3.8-3.3-3.9h-0.1c-2.1,0.1-3.6,1.9-3.6,3.9l-1.1,36c-0.2,2,1.3,3.8,3.4,4C57-9.4,57.1-9.4,57.1-9.4z M35-9.4
				c2-0.1,3.6-1.7,3.5-3.7c0-0.1,0-0.2,0-0.3l-1.1-36c0-2.1-1.6-3.8-3.6-3.9c-2,0.1-3.5,1.8-3.4,3.7c0,0.1,0,0.1,0,0.2l1.1,36
				C31.6-11,33.1-9.4,35-9.4z M46.1-9.4c2-0.1,3.6-1.8,3.5-3.9v-36.2c0.1-2-1.5-3.7-3.5-3.9c-2,0.1-3.6,1.8-3.5,3.9v36.2
				C42.5-11.2,44.1-9.5,46.1-9.4z"/>
		</g>
		<g id="Bold-S" transform="translate(2294.91 696)">
			<path id="Контур_112" d="M74-5.2l2.4-53.7h3.3c2.4,0.1,4.5-1.8,4.6-4.3c0-0.1,0-0.2,0-0.3c0-2.4-1.9-4.4-4.4-4.4
				c-0.1,0-0.2,0-0.2,0h-16V-72c0-6.7-4.7-11-12.5-11H38.8c-7.7,0-12.4,4.3-12.4,11v4.2h-16C8-68,5.9-66,5.9-63.6c0,0.1,0,0.1,0,0.2
				c0,2.5,1.9,4.5,4.4,4.5c0.1,0,0.2,0,0.2,0h3.3l2.4,53.7c0.3,6.8,4.4,10.5,11.2,10.5h35.4C69.6,5.3,73.7,1.6,74-5.2z M35.9-71.7
				c0-1.8,1.4-3.2,3.1-3.2c0.1,0,0.2,0,0.3,0h11.5c1.8-0.1,3.3,1.2,3.4,2.9c0,0.1,0,0.2,0,0.3v3.8H35.8L35.9-71.7z M28.6-3.9
				c-1.9,0-3.1-1.3-3.2-3.5L23-58.9h44L64.7-7.4c-0.1,2.2-1.3,3.5-3.2,3.5H28.6z M56.2-9.1c1.8,0,3.1-1.5,3.2-3.6l1.1-37.1
				c0.2-1.8-1.2-3.4-3-3.6h-0.1c-1.8,0.2-3.2,1.7-3.2,3.6l-1.1,37.1c-0.2,1.8,1.1,3.4,2.9,3.6C56.1-9.1,56.1-9.1,56.2-9.1z
				 M33.9-9.1c1.8-0.1,3.3-1.7,3.2-3.5v-0.1L36-49.8c0-1.8-1.4-3.4-3.2-3.6c-1.8,0.1-3.2,1.6-3.1,3.4c0,0.1,0,0.1,0,0.2l1.1,37.1
				C30.9-10.6,32.2-9.1,33.9-9.1L33.9-9.1z M45.1-9.1c1.8-0.1,3.3-1.7,3.2-3.5v-37.2c0.1-1.8-1.3-3.4-3.2-3.5
				c-1.8,0.1-3.2,1.7-3.2,3.5v37.2C41.8-10.8,43.2-9.3,45.1-9.1L45.1-9.1z"/>
		</g>
		<g id="Semibold-S" transform="translate(1998.88 696)">
			<path id="Контур_113" d="M72.8-5.3l2.4-54.1h3.6c2.2,0,4.1-1.7,4.1-4v-0.1c0-2.2-1.8-4-4-4h-0.1H62.4v-4.7
				c0-6.3-4.4-10.4-11.5-10.4H37.8c-7.1,0-11.5,4.1-11.5,10.4v4.7H10c-2.2-0.1-4,1.7-4.1,3.9v0.1c0,2.2,1.7,4.1,4,4.1H10h3.6L16-5.2
				c0.3,6.4,4.2,10.1,10.7,10.1h35.4C68.5,4.8,72.5,1.2,72.8-5.3z M34.9-71.7c0-1.8,1.4-3.2,3.1-3.3c0.1,0,0.2,0,0.3,0h12.1
				c1.8-0.1,3.3,1.2,3.5,2.9c0,0.1,0,0.2,0,0.3v4.3H34.8L34.9-71.7z M27.7-3.4c-2,0-3.3-1.4-3.4-3.6l-2.5-52.4h44.9L64.4-6.9
				C64.3-4.7,63-3.4,61-3.4H27.7z M55.6-9c1.7-0.1,3-1.5,2.9-3.2v-0.1l1.1-37.8c0.2-1.6-1.1-3.1-2.7-3.3c-0.1,0-0.1,0-0.2,0
				c-1.7,0.1-3,1.6-3,3.3l-1.1,37.8c-0.2,1.7,1,3.1,2.7,3.3C55.4-9,55.5-9,55.6-9z M33.2-9c1.7-0.1,3-1.5,2.9-3.1c0-0.1,0-0.1,0-0.2
				L35-50.1c0-1.7-1.3-3.1-3-3.3c-1.7,0.1-2.9,1.4-2.9,3.1c0,0.1,0,0.1,0,0.2l1.1,37.8C30.2-10.6,31.4-9.1,33.2-9
				C33.1-9,33.2-9,33.2-9L33.2-9z M44.4-9c1.7-0.1,3-1.6,3-3.3v-37.9c0-1.7-1.3-3.1-3-3.2c-1.7,0.1-3,1.5-3,3.2v37.9
				C41.3-10.5,42.7-9.1,44.4-9z"/>
		</g>
		<g id="Medium-S" transform="translate(1702.71 696)">
			<path id="Контур_114" d="M71.9-5.3l2.5-54.3h3.8c2,0,3.7-1.6,3.7-3.7v-0.1c0-2-1.6-3.7-3.6-3.7c0,0,0,0-0.1,0H61.4v-5.1
				c0-6.1-4.2-10-10.8-10H37c-6.7,0-10.8,3.9-10.8,10v5.1H9.6c-2,0-3.7,1.7-3.7,3.7l0,0c0,2.1,1.6,3.7,3.7,3.8l0,0h3.8l2.5,54.4
				C16.2,1,20,4.6,26.2,4.6h35.4C67.7,4.5,71.6,0.9,71.9-5.3z M34.1-71.8c0-1.8,1.3-3.2,3.1-3.3c0.1,0,0.2,0,0.3,0h12.6
				c1.8-0.1,3.3,1.2,3.5,2.9c0,0.1,0,0.2,0,0.3v4.6H34.1V-71.8z M27.1-3c-1.9,0-3.5-1.5-3.5-3.5v-0.1L21-59.7h45.5L64.2-6.6
				c0.1,1.9-1.4,3.5-3.3,3.6c-0.1,0-0.2,0-0.3,0H27.1z M55.1-8.9c1.6-0.1,2.8-1.4,2.7-3V-12l1.1-38.4c0.1-1.6-1-2.9-2.6-3.1
				c-0.1,0-0.1,0-0.2,0c-1.6,0.1-2.8,1.5-2.7,3.1L52.3-12c-0.1,1.6,1,2.9,2.6,3.1C55-8.9,55-8.9,55.1-8.9z M32.6-8.9
				c1.6,0,2.8-1.3,2.7-2.9c0-0.1,0-0.1,0-0.2l-1.1-38.4c0.1-1.6-1.1-2.9-2.7-3.1c-1.6,0-2.8,1.3-2.7,2.9c0,0.1,0,0.1,0,0.2L29.9-12
				C29.8-10.4,30.9-9.1,32.6-8.9L32.6-8.9z M43.8-8.9c1.6-0.1,2.9-1.4,2.8-3.1l0,0v-38.4c0.1-1.6-1.2-3-2.8-3.1l0,0
				c-1.6,0.1-2.9,1.5-2.8,3.1V-12C41-10.3,42.2-9,43.8-8.9L43.8-8.9z"/>
		</g>
		<g id="Regular-S" transform="translate(1406.68 696)">
			<path id="Контур_115" d="M70.7-5.4l2.5-54.7h4.1c1.8,0,3.2-1.5,3.2-3.2l0,0c0-1.8-1.4-3.2-3.2-3.3l0,0H60.1v-5.6
				c0-5.8-3.8-9.4-9.9-9.4H36c-6.2,0-9.9,3.6-9.9,9.4v5.6h-17c-1.8,0-3.2,1.5-3.2,3.3s1.4,3.2,3.2,3.3h4.1l2.5,54.8
				c0.3,5.9,4,9.4,9.9,9.4h35.3C66.7,4.1,70.4,0.4,70.7-5.4z M33.1-71.8c0-1.8,1.4-3.3,3.2-3.3c0.1,0,0.2,0,0.3,0h13.1
				c1.8-0.1,3.3,1.2,3.5,3c0,0.1,0,0.2,0,0.3v5.1H33.1V-71.8z M26.2-2.5c-2,0-3.6-1.6-3.7-3.6c0,0,0,0,0-0.1l-2.5-54h46.2l-2.4,54
				c0,2-1.5,3.6-3.5,3.7c-0.1,0-0.1,0-0.2,0C60.1-2.5,26.2-2.5,26.2-2.5z M54.5-8.7C55.9-8.8,57-10,57-11.5c0,0,0,0,0-0.1l1.1-39.1
				c0.1-1.4-0.9-2.7-2.3-2.8c-0.1,0-0.1,0-0.2,0c-1.4,0.1-2.5,1.4-2.5,2.8L52-11.6c-0.1,1.4,1,2.7,2.4,2.8
				C54.4-8.7,54.5-8.7,54.5-8.7z M31.9-8.7c1.4,0,2.5-1.2,2.5-2.7c0-0.1,0-0.1,0-0.2l-1.1-39.1c0-1.5-1.1-2.7-2.5-2.8
				c-1.4,0-2.5,1.2-2.5,2.6c0,0.1,0,0.1,0,0.2l1.1,39.1C29.3-10.1,30.4-8.8,31.9-8.7C31.8-8.7,31.9-8.7,31.9-8.7z M43.2-8.7
				c1.5-0.1,2.6-1.3,2.6-2.8v-39.1c0.1-1.5-1.1-2.8-2.6-2.8c-1.5,0.1-2.6,1.3-2.6,2.8v39.1C40.5-10,41.7-8.8,43.2-8.7z"/>
		</g>
		<g id="Light-S" transform="translate(1110.48 696)">
			<path id="Контур_116" d="M69.1-4.8l2.7-56.4H77c1.4,0,2.5-1.1,2.5-2.5l0,0c0-1.4-1.1-2.5-2.5-2.5H59.1v-5.9
				c0-5.3-3.6-8.7-9.3-8.7H35.4c-5.7,0-9.3,3.5-9.3,8.7v5.9H8.4c-1.4,0-2.5,1.1-2.5,2.5s1.1,2.5,2.5,2.5h5.1l2.7,56.4
				c0.2,5.2,3.8,8.6,9,8.6h34.9c4.7,0.2,8.8-3.4,9-8.2C69.1-4.5,69.1-4.6,69.1-4.8z M31.5-71.8c0-2.2,1.7-4,3.9-4.1
				c0.1,0,0.2,0,0.4,0h13.7c2.2-0.2,4.1,1.5,4.3,3.7c0,0.1,0,0.3,0,0.4v5.6H31.5V-71.8z M25.7-1.2c-2.3,0-4.2-1.8-4.2-4.1l-2.7-55.9
				h47.8L63.9-5.3c0,2.3-1.9,4.1-4.2,4.1l0,0L25.7-1.2z M54.1-8.3c1.1,0,2-1,2-2.1v-0.1l1.2-41c0.1-1.1-0.7-2.1-1.8-2.2
				c-0.1,0-0.1,0-0.2,0c-1.1,0.1-2,1.1-2,2.2l-1.2,41C51.9-9.4,52.8-8.4,54.1-8.3C54-8.3,54-8.3,54.1-8.3z M31.3-8.3
				c1.2-0.1,2.1-1.1,2-2.3l0,0l-1.2-41c0-1.2-0.9-2.1-2.1-2.2c-1.1,0-2,1-2,2.1v0.1l1.2,41c-0.1,1.1,0.7,2.1,1.8,2.2
				C31.2-8.3,31.2-8.3,31.3-8.3z M42.7-8.3c1.2-0.1,2.1-1.1,2.1-2.2v-41c0-1.2-0.9-2.2-2.1-2.2c-1.2,0.1-2.1,1.1-2.1,2.2v41
				C40.6-9.4,41.5-8.4,42.7-8.3L42.7-8.3z"/>
		</g>
		<g id="Thin-S" transform="translate(814.43 696)">
			<path id="Контур_117" d="M67.1-4l3-58.5h6.4c0.9,0,1.6-0.7,1.6-1.5l0,0c0-0.9-0.7-1.6-1.5-1.6l0,0H57.9v-6.3
				c0-4.6-3.4-7.9-8.5-7.9H34.6c-5.1,0-8.5,3.3-8.5,7.9v6.3H7.4c-0.9,0-1.5,0.7-1.6,1.6c0,0.9,0.7,1.6,1.6,1.6h6.4l3,58.5
				c0.1,4.3,3.7,7.7,8,7.6h34.3C63.5,3.7,67,0.3,67.1-4z M29.4-71.8c0-2.9,2.1-5,5.4-5h14.4c3.2,0,5.4,2.1,5.4,5v6.2H29.4V-71.8z
				 M25,0.5c-2.6,0-4.8-2.1-4.9-4.7l-3-58.3h49.7L63.9-4.2c-0.1,2.6-2.3,4.7-4.9,4.7H25z M53.5-7.8c0.7,0,1.3-0.6,1.4-1.3
				c0,0,0,0,0-0.1l1.4-43.5c0-0.8-0.5-1.4-1.3-1.5c0,0,0,0-0.1,0c-0.7,0-1.3,0.6-1.4,1.4L52.2-9.3C52.1-8.5,52.7-7.9,53.5-7.8
				L53.5-7.8z M30.5-7.8c0.8,0,1.4-0.7,1.4-1.4v-0.1l-1.4-43.4c0-0.7-0.6-1.3-1.4-1.4c-0.7,0-1.3,0.6-1.3,1.3v0.1l1.4,43.5
				C29.1-8.4,29.7-7.8,30.5-7.8C30.4-7.8,30.5-7.8,30.5-7.8z M42-7.8c0.8,0,1.4-0.7,1.4-1.4v-43.5c0-0.8-0.6-1.4-1.4-1.4
				c-0.8,0-1.4,0.6-1.4,1.4v43.5C40.6-8.5,41.3-7.8,42-7.8z"/>
		</g>
		<g id="Ultralight-S" transform="translate(518.085 696)">
			<path id="Контур_118" d="M66.1-3.5l3.1-59.7h7.1c0.6,0,1-0.4,1-1c0,0,0,0,0-0.1c0-0.6-0.4-1-1-1c0,0,0,0-0.1,0h-19v-6.5
				c0-4.2-3.3-7.5-8.2-7.5H34.2c-4.8,0-8.1,3.2-8.1,7.5v6.5H6.9c-0.6,0-1,0.5-1.1,1c0,0.6,0.5,1,1.1,1l0,0h7.2l3.1,59.7
				c0.2,3.9,3.5,7,7.4,7h34C62.6,3.5,65.8,0.4,66.1-3.5z M28.3-71.8c0-3.1,2.3-5.5,5.9-5.5H49c3.6,0,6,2.3,6,5.5v6.5H28.3V-71.8z
				 M24.8,1.4c-2.8,0-5.2-2.2-5.4-5.1l-3.1-59.5H67L64-3.7c-0.2,2.8-2.5,5-5.3,5.1L24.8,1.4z M53.2-7.5c0.6,0,1-0.4,1.1-1l1.4-44.7
				c0-0.6-0.4-1.1-1-1.1l0,0c-0.5,0-1,0.4-1,1l0,0L52.3-8.6C52.3-8,52.6-7.5,53.2-7.5z M30.1-7.5c0.6,0,1-0.5,1-1.1l0,0l-1.5-44.7
				c0-0.6-0.5-1-1.1-1c-0.5,0-1,0.5-0.9,1c0,0,0,0,0,0.1L29-8.5C29.1-8,29.5-7.5,30.1-7.5L30.1-7.5z M41.7-7.5c0.5,0,1-0.5,1-1
				v-44.7c0-0.5-0.4-1-1-1l0,0c-0.6,0-1,0.5-1,1v44.7C40.7-8,41.1-7.5,41.7-7.5L41.7-7.5z"/>
		</g>
	</g>
</g>
</svg>
