<?xml version="1.0" encoding="UTF-8"?>
<svg width="37px" height="25px" viewBox="0 0 37 25" version="1.1" xmlns="http://www.w3.org/2000/svg" xmlns:xlink="http://www.w3.org/1999/xlink">
    <title>btn4</title>
    <g id="Page-2" stroke="none" stroke-width="1" fill="none" fill-rule="evenodd">
        <g id="btn4" fill="#181725" fill-rule="nonzero">
            <path d="M23.1498793,18.4217105 C24.1552586,18.4217105 25.1506862,18.2175 26.0793862,17.8207895 C27.0082138,17.4240789 27.852069,16.8425 28.5629793,16.1093421 C29.2737621,15.3763158 29.8376931,14.5060526 30.2223655,13.5481579 C30.6071655,12.5903289 30.8050517,11.5637237 30.8050517,10.5269737 C30.8050517,9.49022368 30.6071655,8.46363158 30.2223655,7.50578947 C29.8376931,6.54796053 29.2737621,5.67764474 28.5629793,4.94455263 C27.852069,4.21146053 27.0082138,3.62993421 26.0793862,3.23319737 C25.1506862,2.83644737 24.1552586,2.63223684 23.1498793,2.63223684 C21.1196,2.63223684 19.1725069,3.464 17.7369069,4.94455263 C16.3013069,6.42510526 15.4947069,8.43315789 15.4947069,10.5269737 C15.4947069,12.6207895 16.3013069,14.6288158 17.7369069,16.1093421 C19.1725069,17.59 21.1196,18.4217105 23.1498793,18.4217105 Z M31.2133276,16.9822368 L35.7809138,21.6927632 C35.9027586,21.8142105 35.9998517,21.9594737 36.0665793,22.1201316 C36.1333069,22.2806579 36.1683931,22.4532895 36.1698328,22.6280263 C36.1710724,22.8027632 36.1386655,22.9760526 36.0744897,23.1376316 C36.0101862,23.2993421 35.9153897,23.4461842 35.7954586,23.5696053 C35.6756552,23.6930263 35.5331414,23.7906579 35.3762103,23.8567105 C35.2194069,23.9227632 35.0513759,23.9559211 34.8819414,23.9542735 C34.7125069,23.9526316 34.5451138,23.9161842 34.3895862,23.8471053 C34.233931,23.7780263 34.0932034,23.6777632 33.975569,23.5519737 L29.4079828,18.8414474 C27.3570345,20.4834211 24.7763483,21.2575 22.1914517,21.0061842 C19.6065552,20.7548684 17.2116345,19.4971053 15.4941966,17.4889474 C13.7767586,15.4806579 12.8660483,12.8729605 12.9474483,10.1966184 C13.0287207,7.52026316 14.0959793,4.97648684 15.9319448,3.08309211 C17.7679103,1.18970132 20.2344069,0.0890396053 22.8296379,0.00516976316 C25.4247414,-0.0787001316 27.9533724,0.860526316 29.9005931,2.63164474 C31.8479414,4.40277632 33.0675379,6.87265789 33.3111,9.5385 C33.5547897,12.2043421 32.8042,14.8657895 31.2120517,16.9809211 L31.2133276,16.9822368 Z" id="Shape"></path>
            <rect id="Rectangle" x="0" y="0" width="11.2977459" height="3.15688158" rx="1.19961"></rect>
            <rect id="Rectangle" x="0" y="9.78682895" width="8.24735103" height="3.15688158" rx="1.19961"></rect>
            <rect id="Rectangle" x="0" y="19.575" width="11.2977459" height="3.15688158" rx="1.19961"></rect>
        </g>
    </g>
</svg>