<svg width="17" height="17" viewBox="0 0 17 17" fill="none" xmlns="http://www.w3.org/2000/svg">
<mask id="path-1-outside-1" maskUnits="userSpaceOnUse" x="0" y="0" width="17" height="17" fill="black">
<rect fill="white" width="17" height="17"/>
<path fill-rule="evenodd" clip-rule="evenodd" d="M1.0464 2.10526C1.0348 2.39849 1.1508 2.68044 1.35961 2.89473L6.01132 7.42854L7.10174 8.47741L1.35961 14.0601C1.24361 14.1729 1.1508 14.2969 1.0928 14.4323C1.0348 14.5676 1 14.7142 1 14.8608C1 15.0187 1.0232 15.1654 1.0928 15.3007C1.1508 15.436 1.232 15.5714 1.33641 15.6729C1.45241 15.7744 1.58001 15.8646 1.71922 15.921C1.85842 15.9774 2.02082 15.9999 2.17163 15.9999C2.32243 15.9999 2.47323 15.9661 2.62404 15.9097C2.76324 15.8533 2.89084 15.7631 2.99525 15.6616L8.48253 10.3267L14.0048 15.6956C14.2252 15.8986 14.5152 16.0001 14.8168 16.0001C15.1184 16.0001 15.4084 15.876 15.6172 15.673C15.8376 15.4587 15.9536 15.1881 15.9536 14.8948C15.9652 14.6016 15.8492 14.3196 15.6404 14.1054L10.9887 9.57154L9.89827 8.52268L15.6404 2.93999C15.7564 2.82721 15.8492 2.70315 15.9072 2.56782C15.9652 2.43248 16 2.28586 16 2.13925C16 1.98135 15.9768 1.83474 15.9072 1.6994C15.8492 1.56406 15.768 1.42872 15.6636 1.32722C15.5476 1.22572 15.42 1.13549 15.2808 1.0791C15.1416 1.02271 14.9792 1.00015 14.8284 1.00015C14.6776 1.00015 14.5268 1.03399 14.376 1.09038C14.2368 1.14677 14.1092 1.23699 14.0048 1.3385L8.51748 6.6734L2.99525 1.30451C2.77484 1.1015 2.48484 1 2.18323 1C1.88162 1 1.59161 1.12406 1.38281 1.32707C1.1624 1.54135 1.0464 1.81203 1.0464 2.10526Z"/>
</mask>
<path fill-rule="evenodd" clip-rule="evenodd" d="M1.0464 2.10526C1.0348 2.39849 1.1508 2.68044 1.35961 2.89473L6.01132 7.42854L7.10174 8.47741L1.35961 14.0601C1.24361 14.1729 1.1508 14.2969 1.0928 14.4323C1.0348 14.5676 1 14.7142 1 14.8608C1 15.0187 1.0232 15.1654 1.0928 15.3007C1.1508 15.436 1.232 15.5714 1.33641 15.6729C1.45241 15.7744 1.58001 15.8646 1.71922 15.921C1.85842 15.9774 2.02082 15.9999 2.17163 15.9999C2.32243 15.9999 2.47323 15.9661 2.62404 15.9097C2.76324 15.8533 2.89084 15.7631 2.99525 15.6616L8.48253 10.3267L14.0048 15.6956C14.2252 15.8986 14.5152 16.0001 14.8168 16.0001C15.1184 16.0001 15.4084 15.876 15.6172 15.673C15.8376 15.4587 15.9536 15.1881 15.9536 14.8948C15.9652 14.6016 15.8492 14.3196 15.6404 14.1054L10.9887 9.57154L9.89827 8.52268L15.6404 2.93999C15.7564 2.82721 15.8492 2.70315 15.9072 2.56782C15.9652 2.43248 16 2.28586 16 2.13925C16 1.98135 15.9768 1.83474 15.9072 1.6994C15.8492 1.56406 15.768 1.42872 15.6636 1.32722C15.5476 1.22572 15.42 1.13549 15.2808 1.0791C15.1416 1.02271 14.9792 1.00015 14.8284 1.00015C14.6776 1.00015 14.5268 1.03399 14.376 1.09038C14.2368 1.14677 14.1092 1.23699 14.0048 1.3385L8.51748 6.6734L2.99525 1.30451C2.77484 1.1015 2.48484 1 2.18323 1C1.88162 1 1.59161 1.12406 1.38281 1.32707C1.1624 1.54135 1.0464 1.81203 1.0464 2.10526Z" fill="#959595"/>
<path d="M1.35961 2.89473L1.28796 2.96454L1.28981 2.96634L1.35961 2.89473ZM1.0464 2.10526L1.1464 2.10921V2.10526H1.0464ZM6.01132 7.42854L5.94152 7.50016L5.94199 7.50062L6.01132 7.42854ZM7.10174 8.47741L7.17145 8.54911L7.24559 8.47703L7.17107 8.40534L7.10174 8.47741ZM1.35961 14.0601L1.2899 13.9884H1.2899L1.35961 14.0601ZM1.0928 15.3007L1.18494 15.2612L1.18173 15.255L1.0928 15.3007ZM1.33641 15.6729L1.2666 15.7447L1.27056 15.7481L1.33641 15.6729ZM1.71922 15.921L1.68167 16.0137L1.71922 15.921ZM2.62404 15.9097L2.65908 16.0034L2.66158 16.0024L2.62404 15.9097ZM2.99525 15.6616L3.06495 15.7333H3.06495L2.99525 15.6616ZM8.48253 10.3267L8.55223 10.255L8.48253 10.1872L8.41282 10.255L8.48253 10.3267ZM14.0048 15.6956L13.935 15.7673L13.937 15.7691L14.0048 15.6956ZM15.6172 15.673L15.5475 15.6013L15.6172 15.673ZM15.9536 14.8948L15.8536 14.8909V14.8948H15.9536ZM15.6404 14.1054L15.712 14.0355L15.7102 14.0337L15.6404 14.1054ZM10.9887 9.57154L11.0585 9.49993L11.058 9.49947L10.9887 9.57154ZM9.89827 8.52268L9.82856 8.45098L9.75442 8.52306L9.82895 8.59475L9.89827 8.52268ZM15.6404 2.93999L15.7101 3.01169L15.7101 3.01169L15.6404 2.93999ZM15.9072 2.56782L15.9991 2.60721V2.60721L15.9072 2.56782ZM15.9072 1.6994L15.8151 1.73889L15.8183 1.74513L15.9072 1.6994ZM15.6636 1.32722L15.7334 1.25542L15.7295 1.25196L15.6636 1.32722ZM15.2808 1.0791L15.2432 1.17178L15.2808 1.0791ZM14.376 1.09038L14.3409 0.996678L14.3384 0.997694L14.376 1.09038ZM14.0048 1.3385L13.9351 1.2668V1.2668L14.0048 1.3385ZM8.51748 6.6734L8.44778 6.7451L8.51748 6.81288L8.58719 6.7451L8.51748 6.6734ZM2.99525 1.30451L3.06498 1.23278L3.06299 1.23096L2.99525 1.30451ZM1.38281 1.32707L1.45252 1.39877L1.38281 1.32707ZM1.43123 2.82494C1.24008 2.62877 1.13589 2.37294 1.14632 2.10921L0.94648 2.10131C0.933713 2.42404 1.06153 2.73212 1.28799 2.96452L1.43123 2.82494ZM6.08111 7.35693L1.42941 2.82312L1.28981 2.96634L5.94152 7.50016L6.08111 7.35693ZM7.17107 8.40534L6.08064 7.35647L5.94199 7.50062L7.03242 8.54948L7.17107 8.40534ZM1.42932 14.1318L7.17145 8.54911L7.03203 8.40571L1.2899 13.9884L1.42932 14.1318ZM1.18472 14.4717C1.23627 14.3514 1.3202 14.2379 1.42932 14.1318L1.2899 13.9884C1.16702 14.1079 1.06534 14.2425 1.00089 14.3929L1.18472 14.4717ZM1.1 14.8608C1.1 14.7298 1.13117 14.5966 1.18472 14.4717L1.00089 14.3929C0.938435 14.5386 0.9 14.6986 0.9 14.8608H1.1ZM1.18173 15.255C1.12182 15.1385 1.1 15.0091 1.1 14.8608H0.9C0.9 15.0283 0.924578 15.1922 1.00387 15.3464L1.18173 15.255ZM1.40612 15.6012C1.31412 15.5117 1.23943 15.389 1.18472 15.2613L1.00089 15.3401C1.06218 15.4831 1.14989 15.631 1.2667 15.7446L1.40612 15.6012ZM1.75676 15.8283C1.63168 15.7776 1.51361 15.695 1.40226 15.5976L1.27056 15.7481C1.39121 15.8537 1.52834 15.9516 1.68167 16.0137L1.75676 15.8283ZM2.17163 15.8999C2.02949 15.8999 1.88068 15.8785 1.75676 15.8283L1.68167 16.0137C1.83616 16.0763 2.01216 16.0999 2.17163 16.0999V15.8999ZM2.58901 15.816C2.44618 15.8695 2.30744 15.8999 2.17163 15.8999V16.0999C2.33742 16.0999 2.50029 16.0627 2.65906 16.0034L2.58901 15.816ZM2.92554 15.5899C2.82858 15.6842 2.71157 15.7664 2.58649 15.817L2.66158 16.0024C2.81491 15.9403 2.95311 15.842 3.06495 15.7333L2.92554 15.5899ZM8.41282 10.255L2.92554 15.5899L3.06495 15.7333L8.55223 10.3984L8.41282 10.255ZM14.0745 15.6239L8.55223 10.255L8.41282 10.3984L13.9351 15.7673L14.0745 15.6239ZM14.8168 15.9001C14.5375 15.9001 14.2725 15.8062 14.0725 15.622L13.937 15.7691C14.1779 15.991 14.4929 16.1001 14.8168 16.1001V15.9001ZM15.5475 15.6013C15.3567 15.7869 15.0914 15.9001 14.8168 15.9001V16.1001C15.1454 16.1001 15.4601 15.9652 15.6869 15.7447L15.5475 15.6013ZM15.8536 14.8948C15.8536 15.16 15.7493 15.4051 15.5475 15.6013L15.6869 15.7447C15.9259 15.5124 16.0536 15.2161 16.0536 14.8948H15.8536ZM15.5688 14.1751C15.7599 14.3713 15.8641 14.6271 15.8537 14.8909L16.0535 14.8988C16.0663 14.5761 15.9385 14.268 15.712 14.0356L15.5688 14.1751ZM10.9189 9.64316L15.5706 14.177L15.7102 14.0337L11.0585 9.49993L10.9189 9.64316ZM9.82895 8.59475L10.9194 9.64361L11.058 9.49947L9.96759 8.45061L9.82895 8.59475ZM15.5707 2.86829L9.82856 8.45098L9.96798 8.59438L15.7101 3.01169L15.5707 2.86829ZM15.8153 2.52842C15.7637 2.64871 15.6798 2.7622 15.5707 2.86829L15.7101 3.01169C15.833 2.89222 15.9347 2.75759 15.9991 2.60721L15.8153 2.52842ZM15.9 2.13925C15.9 2.27024 15.8688 2.40347 15.8153 2.52842L15.9991 2.60721C16.0616 2.46148 16.1 2.30148 16.1 2.13925H15.9ZM15.8183 1.74513C15.8782 1.86162 15.9 1.99096 15.9 2.13925H16.1C16.1 1.97174 16.0754 1.80785 15.9961 1.65366L15.8183 1.74513ZM15.5939 1.39892C15.6859 1.48836 15.7606 1.61113 15.8153 1.73879L15.9991 1.66001C15.9378 1.51699 15.8501 1.36908 15.7333 1.25552L15.5939 1.39892ZM15.2432 1.17178C15.3683 1.22245 15.4864 1.30504 15.5978 1.40248L15.7295 1.25196C15.6088 1.14639 15.4717 1.04853 15.3183 0.986416L15.2432 1.17178ZM14.8284 1.10015C14.9705 1.10015 15.1193 1.12159 15.2432 1.17178L15.3183 0.986416C15.1638 0.923832 14.9879 0.900153 14.8284 0.900153V1.10015ZM14.411 1.18404C14.5538 1.13063 14.6926 1.10015 14.8284 1.10015V0.900153C14.6626 0.900153 14.4997 0.937343 14.3409 0.996712L14.411 1.18404ZM14.0745 1.4102C14.1714 1.31593 14.2884 1.23373 14.4135 1.18306L14.3384 0.997694C14.1851 1.05981 14.0469 1.15806 13.9351 1.2668L14.0745 1.4102ZM8.58719 6.7451L14.0745 1.4102L13.9351 1.2668L8.44778 6.6017L8.58719 6.7451ZM2.92554 1.37621L8.44778 6.7451L8.58719 6.6017L3.06496 1.23281L2.92554 1.37621ZM2.18323 1.1C2.46255 1.1 2.72753 1.19388 2.9275 1.37806L3.06299 1.23096C2.82216 1.00913 2.50713 0.9 2.18323 0.9V1.1ZM1.45252 1.39877C1.64334 1.21324 1.9086 1.1 2.18323 1.1V0.9C1.85464 0.9 1.53988 1.03488 1.3131 1.25537L1.45252 1.39877ZM1.1464 2.10526C1.1464 1.84011 1.2507 1.59498 1.45252 1.39877L1.3131 1.25537C1.07411 1.48772 0.946402 1.78394 0.946402 2.10526H1.1464Z" fill="#B3B3B3" mask="url(#path-1-outside-1)"/>
</svg>
