<?xml version="1.0" encoding="UTF-8"?>
<svg width="25px" height="25px" viewBox="0 0 25 25" version="1.1" xmlns="http://www.w3.org/2000/svg" xmlns:xlink="http://www.w3.org/1999/xlink">
    <title>btn2</title>
    <g id="Page-2" stroke="none" stroke-width="1" fill="none" fill-rule="evenodd">
        <g id="btn2" fill="#000000">
            <path d="M23.2043056,1.79568056 C23.7466667,2.33808333 23.7466667,3.21747222 23.2043056,3.759875 L3.759875,23.2043056 C3.21747222,23.7466667 2.33808333,23.7466667 1.79568056,23.2043056 C1.25329167,22.6619444 1.25329167,21.7825 1.79568056,21.2401389 L21.2401389,1.79568056 C21.7825,1.25329167 22.6619444,1.25329167 23.2043056,1.79568056 Z" id="Path"></path>
            <path d="M5.55555556,2.77777778 C4.02143056,2.77777778 2.77777778,4.02143056 2.77777778,5.55555556 C2.77777778,7.08968056 4.02143056,8.33333333 5.55555556,8.33333333 C7.08968056,8.33333333 8.33333333,7.08968056 8.33333333,5.55555556 C8.33333333,4.02143056 7.08968056,2.77777778 5.55555556,2.77777778 Z M0,5.55555556 C0,2.48730556 2.48730556,0 5.55555556,0 C8.62380556,0 11.1111111,2.48730556 11.1111111,5.55555556 C11.1111111,8.62380556 8.62380556,11.1111111 5.55555556,11.1111111 C2.48730556,11.1111111 0,8.62380556 0,5.55555556 Z" id="Shape"></path>
            <path d="M19.4444444,16.6666667 C17.9102778,16.6666667 16.6666667,17.9102778 16.6666667,19.4444444 C16.6666667,20.9786111 17.9102778,22.2222222 19.4444444,22.2222222 C20.9786111,22.2222222 22.2222222,20.9786111 22.2222222,19.4444444 C22.2222222,17.9102778 20.9786111,16.6666667 19.4444444,16.6666667 Z M13.8888889,19.4444444 C13.8888889,16.37625 16.37625,13.8888889 19.4444444,13.8888889 C22.5126389,13.8888889 25,16.37625 25,19.4444444 C25,22.5126389 22.5126389,25 19.4444444,25 C16.37625,25 13.8888889,22.5126389 13.8888889,19.4444444 Z" id="Shape"></path>
        </g>
    </g>
</svg>