<svg width="335" height="70" viewBox="0 0 335 70" fill="none" xmlns="http://www.w3.org/2000/svg">
<g filter="url(#filter0_d)">
<path d="M9.5 18C9.5 11.3726 14.8726 6 21.5 6H313.5C320.127 6 325.5 11.3726 325.5 18V45.3925C325.5 52.0199 320.127 57.3925 313.5 57.3925H21.5C14.8726 57.3925 9.5 52.0199 9.5 45.3925V18Z" fill="url(#paint0_linear)"/>
<path d="M129.82 28.3903C129.288 28.3903 128.826 28.4976 128.434 28.7123C128.051 28.927 127.739 29.2163 127.496 29.5803C127.253 29.935 127.071 30.341 126.95 30.7983C126.838 31.2556 126.782 31.7223 126.782 32.1983C126.782 32.6743 126.838 33.141 126.95 33.5983C127.071 34.0556 127.253 34.4663 127.496 34.8303C127.739 35.185 128.051 35.4696 128.434 35.6843C128.826 35.899 129.288 36.0063 129.82 36.0063C130.352 36.0063 130.809 35.899 131.192 35.6843C131.584 35.4696 131.901 35.185 132.144 34.8303C132.387 34.4663 132.564 34.0556 132.676 33.5983C132.797 33.141 132.858 32.6743 132.858 32.1983C132.858 31.7223 132.797 31.2556 132.676 30.7983C132.564 30.341 132.387 29.935 132.144 29.5803C131.901 29.2163 131.584 28.927 131.192 28.7123C130.809 28.4976 130.352 28.3903 129.82 28.3903ZM129.82 26.9623C130.567 26.9623 131.234 27.1023 131.822 27.3823C132.419 27.6623 132.923 28.0403 133.334 28.5163C133.745 28.9923 134.057 29.5476 134.272 30.1823C134.496 30.817 134.608 31.489 134.608 32.1983C134.608 32.917 134.496 33.5936 134.272 34.2283C134.057 34.863 133.745 35.4183 133.334 35.8943C132.923 36.3703 132.419 36.7483 131.822 37.0283C131.234 37.299 130.567 37.4343 129.82 37.4343C129.073 37.4343 128.401 37.299 127.804 37.0283C127.216 36.7483 126.717 36.3703 126.306 35.8943C125.895 35.4183 125.578 34.863 125.354 34.2283C125.139 33.5936 125.032 32.917 125.032 32.1983C125.032 31.489 125.139 30.817 125.354 30.1823C125.578 29.5476 125.895 28.9923 126.306 28.5163C126.717 28.0403 127.216 27.6623 127.804 27.3823C128.401 27.1023 129.073 26.9623 129.82 26.9623ZM135.249 27.2003H143.341V28.7123H140.163V37.1963H138.413V28.7123H135.249V27.2003ZM144.458 27.2003H152.508V37.1963H150.758V28.7123H146.208V37.1963H144.458V27.2003ZM154.603 27.2003H159.013C159.722 27.2003 160.301 27.303 160.749 27.5083C161.197 27.7136 161.542 27.9703 161.785 28.2783C162.028 28.5863 162.191 28.9223 162.275 29.2863C162.368 29.6503 162.415 29.9863 162.415 30.2943C162.415 30.6023 162.368 30.9383 162.275 31.3023C162.191 31.657 162.028 31.9883 161.785 32.2963C161.542 32.6043 161.197 32.861 160.749 33.0663C160.301 33.2623 159.722 33.3603 159.013 33.3603H156.353V37.1963H154.603V27.2003ZM156.353 31.9323H158.915C159.111 31.9323 159.312 31.9043 159.517 31.8483C159.722 31.7923 159.909 31.7036 160.077 31.5823C160.254 31.4516 160.394 31.2836 160.497 31.0783C160.609 30.8636 160.665 30.5976 160.665 30.2803C160.665 29.9536 160.618 29.683 160.525 29.4683C160.432 29.2536 160.306 29.0856 160.147 28.9643C159.988 28.8336 159.806 28.745 159.601 28.6983C159.396 28.6516 159.176 28.6283 158.943 28.6283H156.353V31.9323ZM166.615 27.2003H168.477L172.327 37.1963H170.451L169.513 34.5503H165.523L164.585 37.1963H162.779L166.615 27.2003ZM165.999 33.2203H169.051L167.553 28.9223H167.511L165.999 33.2203ZM175.029 31.3863H177.885C178.305 31.3863 178.655 31.2696 178.935 31.0363C179.215 30.7936 179.355 30.4483 179.355 30.0003C179.355 29.4963 179.229 29.1416 178.977 28.9363C178.725 28.731 178.361 28.6283 177.885 28.6283H175.029V31.3863ZM173.279 27.2003H178.137C179.033 27.2003 179.752 27.4056 180.293 27.8163C180.834 28.227 181.105 28.8476 181.105 29.6783C181.105 30.1823 180.979 30.6163 180.727 30.9803C180.484 31.335 180.134 31.6103 179.677 31.8063V31.8343C180.293 31.965 180.76 32.259 181.077 32.7163C181.394 33.1643 181.553 33.729 181.553 34.4103C181.553 34.8023 181.483 35.171 181.343 35.5163C181.203 35.8523 180.984 36.1463 180.685 36.3983C180.386 36.641 180.004 36.837 179.537 36.9863C179.07 37.1263 178.515 37.1963 177.871 37.1963H173.279V27.2003ZM175.029 35.7683H178.123C178.655 35.7683 179.066 35.633 179.355 35.3623C179.654 35.0823 179.803 34.6903 179.803 34.1863C179.803 33.6916 179.654 33.3136 179.355 33.0523C179.066 32.7816 178.655 32.6463 178.123 32.6463H175.029V35.7683ZM183.094 27.2003H184.844V34.6483L189.086 27.2003H191.144V37.1963H189.394V29.6923L185.096 37.1963H183.094V27.2003ZM192.288 27.2003H200.38V28.7123H197.202V37.1963H195.452V28.7123H192.288V27.2003ZM203.289 35.7683H205.879C206.112 35.7683 206.331 35.745 206.537 35.6983C206.742 35.6516 206.924 35.5676 207.083 35.4463C207.241 35.3156 207.367 35.143 207.461 34.9283C207.554 34.7136 207.601 34.443 207.601 34.1163C207.601 33.799 207.545 33.5376 207.433 33.3323C207.33 33.1176 207.19 32.9496 207.013 32.8283C206.845 32.6976 206.658 32.6043 206.453 32.5483C206.247 32.4923 206.047 32.4643 205.851 32.4643H203.289V35.7683ZM201.539 27.2003H203.289V31.0363H205.949C206.658 31.0363 207.237 31.139 207.685 31.3443C208.133 31.5403 208.478 31.7923 208.721 32.1003C208.963 32.4083 209.127 32.7443 209.211 33.1083C209.304 33.463 209.351 33.7943 209.351 34.1023C209.351 34.4103 209.304 34.7463 209.211 35.1103C209.127 35.4743 208.963 35.8103 208.721 36.1183C208.478 36.4263 208.133 36.683 207.685 36.8883C207.237 37.0936 206.658 37.1963 205.949 37.1963H201.539V27.2003Z" fill="white"/>
</g>
<defs>
<filter id="filter0_d" x="0.5" y="0" width="334" height="69.3925" filterUnits="userSpaceOnUse" color-interpolation-filters="sRGB">
<feFlood flood-opacity="0" result="BackgroundImageFix"/>
<feColorMatrix in="SourceAlpha" type="matrix" values="0 0 0 0 0 0 0 0 0 0 0 0 0 0 0 0 0 0 127 0"/>
<feOffset dy="3"/>
<feGaussianBlur stdDeviation="4.5"/>
<feColorMatrix type="matrix" values="0 0 0 0 0.206784 0 0 0 0 0.4625 0 0 0 0 0.0423958 0 0 0 0.23 0"/>
<feBlend mode="normal" in2="BackgroundImageFix" result="effect1_dropShadow"/>
<feBlend mode="normal" in="SourceGraphic" in2="effect1_dropShadow" result="shape"/>
</filter>
<linearGradient id="paint0_linear" x1="325.5" y1="51.4626" x2="300.45" y2="-94.108" gradientUnits="userSpaceOnUse">
<stop stop-color="#78B054"/>
<stop offset="1" stop-color="#E0E441"/>
</linearGradient>
</defs>
</svg>
