<svg width="22" height="22" viewBox="0 0 22 22" fill="none" xmlns="http://www.w3.org/2000/svg">
<mask id="path-1-outside-1" maskUnits="userSpaceOnUse" x="0" y="0" width="22" height="22" fill="black">
<rect fill="white" width="22" height="22"/>
<path fill-rule="evenodd" clip-rule="evenodd" d="M20.9384 19.5258C20.9538 19.1348 20.7992 18.7589 20.5208 18.4732L14.3184 12.4282L12.8645 11.0298L20.5208 3.58639C20.6754 3.43602 20.7992 3.27061 20.8765 3.09016C20.9538 2.90972 21.0002 2.71424 21.0002 2.51875C21.0002 2.30823 20.9693 2.11275 20.8765 1.9323C20.7992 1.75186 20.6909 1.57141 20.5517 1.43608C20.397 1.30074 20.2269 1.18045 20.0413 1.10526C19.8557 1.03007 19.6391 1 19.4381 1C19.237 1 19.0359 1.04511 18.8348 1.1203C18.6492 1.19548 18.4791 1.31578 18.3399 1.45111L11.023 8.56459L3.66035 1.40659C3.36647 1.13592 2.97979 1.00059 2.57765 1.00059C2.1755 1.00059 1.78883 1.166 1.51042 1.43667C1.21654 1.72237 1.06187 2.08326 1.06187 2.47423C1.0464 2.86519 1.20107 3.24112 1.47948 3.52683L7.6818 9.57176L9.13571 10.9702L1.47948 18.4136C1.32481 18.564 1.20107 18.7294 1.12374 18.9098C1.0464 19.0903 1 19.2858 1 19.4812C1 19.6918 1.03093 19.8872 1.12374 20.0677C1.20107 20.2481 1.30934 20.4286 1.44855 20.5639C1.60322 20.6993 1.77336 20.8196 1.95896 20.8947C2.14457 20.9699 2.36111 21 2.56218 21C2.76325 21 2.96432 20.9549 3.1654 20.8797C3.351 20.8045 3.52114 20.6842 3.66034 20.5489L10.9772 13.4354L18.3399 20.5934C18.6338 20.8641 19.0205 20.9994 19.4226 20.9994C19.8247 20.9994 20.2114 20.834 20.4898 20.5633C20.7837 20.2776 20.9384 19.9167 20.9384 19.5258Z"/>
</mask>
<path fill-rule="evenodd" clip-rule="evenodd" d="M20.9384 19.5258C20.9538 19.1348 20.7992 18.7589 20.5208 18.4732L14.3184 12.4282L12.8645 11.0298L20.5208 3.58639C20.6754 3.43602 20.7992 3.27061 20.8765 3.09016C20.9538 2.90972 21.0002 2.71424 21.0002 2.51875C21.0002 2.30823 20.9693 2.11275 20.8765 1.9323C20.7992 1.75186 20.6909 1.57141 20.5517 1.43608C20.397 1.30074 20.2269 1.18045 20.0413 1.10526C19.8557 1.03007 19.6391 1 19.4381 1C19.237 1 19.0359 1.04511 18.8348 1.1203C18.6492 1.19548 18.4791 1.31578 18.3399 1.45111L11.023 8.56459L3.66035 1.40659C3.36647 1.13592 2.97979 1.00059 2.57765 1.00059C2.1755 1.00059 1.78883 1.166 1.51042 1.43667C1.21654 1.72237 1.06187 2.08326 1.06187 2.47423C1.0464 2.86519 1.20107 3.24112 1.47948 3.52683L7.6818 9.57176L9.13571 10.9702L1.47948 18.4136C1.32481 18.564 1.20107 18.7294 1.12374 18.9098C1.0464 19.0903 1 19.2858 1 19.4812C1 19.6918 1.03093 19.8872 1.12374 20.0677C1.20107 20.2481 1.30934 20.4286 1.44855 20.5639C1.60322 20.6993 1.77336 20.8196 1.95896 20.8947C2.14457 20.9699 2.36111 21 2.56218 21C2.76325 21 2.96432 20.9549 3.1654 20.8797C3.351 20.8045 3.52114 20.6842 3.66034 20.5489L10.9772 13.4354L18.3399 20.5934C18.6338 20.8641 19.0205 20.9994 19.4226 20.9994C19.8247 20.9994 20.2114 20.834 20.4898 20.5633C20.7837 20.2776 20.9384 19.9167 20.9384 19.5258Z" fill="#181725"/>
<path d="M20.5208 18.4732L20.5924 18.4034L20.5906 18.4016L20.5208 18.4732ZM20.9384 19.5258L20.8384 19.5218V19.5258H20.9384ZM14.3184 12.4282L14.3882 12.3566L14.3878 12.3562L14.3184 12.4282ZM12.8645 11.0298L12.7948 10.9581L12.7207 11.0302L12.7952 11.1019L12.8645 11.0298ZM20.5208 3.58639L20.5905 3.65809V3.65809L20.5208 3.58639ZM20.8765 3.09016L20.9684 3.12956L20.8765 3.09016ZM20.8765 1.9323L20.7844 1.97179L20.7876 1.97804L20.8765 1.9323ZM20.5517 1.43608L20.6215 1.36428L20.6175 1.36082L20.5517 1.43608ZM20.0413 1.10526L20.0788 1.01258L20.0413 1.10526ZM18.8348 1.1203L18.7998 1.0266L18.7973 1.02761L18.8348 1.1203ZM18.3399 1.45111L18.4096 1.52281V1.52281L18.3399 1.45111ZM11.023 8.56459L10.9533 8.63629L11.023 8.70406L11.0927 8.63629L11.023 8.56459ZM3.66035 1.40659L3.73008 1.33487L3.72809 1.33304L3.66035 1.40659ZM2.57765 1.00059V0.900588V1.00059ZM1.51042 1.43667L1.58012 1.50837L1.51042 1.43667ZM1.06187 2.47423L1.16187 2.47818V2.47423H1.06187ZM1.47948 3.52683L1.40784 3.59664L1.40969 3.59844L1.47948 3.52683ZM7.6818 9.57176L7.612 9.64338L7.61247 9.64384L7.6818 9.57176ZM9.13571 10.9702L9.20541 11.0419L9.27956 10.9698L9.20503 10.8981L9.13571 10.9702ZM1.47948 18.4136L1.40977 18.3419L1.47948 18.4136ZM1.12374 18.9098L1.21565 18.9492H1.21565L1.12374 18.9098ZM1.12374 20.0677L1.21588 20.0282L1.21267 20.022L1.12374 20.0677ZM1.44855 20.5639L1.37874 20.6357L1.3827 20.6392L1.44855 20.5639ZM1.95896 20.8947L1.92142 20.9874L1.95896 20.8947ZM3.1654 20.8797L3.20043 20.9734L3.20294 20.9724L3.1654 20.8797ZM3.66034 20.5489L3.73005 20.6206H3.73005L3.66034 20.5489ZM10.9772 13.4354L11.0469 13.3637L10.9772 13.2959L10.9075 13.3637L10.9772 13.4354ZM18.3399 20.5934L18.2702 20.6651L18.2722 20.667L18.3399 20.5934ZM20.4898 20.5633L20.4201 20.4916H20.4201L20.4898 20.5633ZM20.4491 18.543C20.7099 18.8105 20.8528 19.1604 20.8385 19.5218L21.0383 19.5297C21.0549 19.1093 20.8884 18.7072 20.5924 18.4034L20.4491 18.543ZM14.2487 12.4998L20.451 18.5448L20.5906 18.4016L14.3882 12.3566L14.2487 12.4998ZM12.7952 11.1019L14.2491 12.5003L14.3878 12.3562L12.9339 10.9577L12.7952 11.1019ZM20.4511 3.51469L12.7948 10.9581L12.9342 11.1015L20.5905 3.65809L20.4511 3.51469ZM20.7846 3.05077C20.7137 3.21617 20.5988 3.37101 20.4511 3.51469L20.5905 3.65809C20.752 3.50103 20.8846 3.32505 20.9684 3.12956L20.7846 3.05077ZM20.9002 2.51875C20.9002 2.69862 20.8575 2.88071 20.7846 3.05077L20.9684 3.12956C21.0502 2.93872 21.1002 2.72985 21.1002 2.51875H20.9002ZM20.7876 1.97804C20.8707 2.13964 20.9002 2.31785 20.9002 2.51875H21.1002C21.1002 2.29862 21.0679 2.08586 20.9654 1.88657L20.7876 1.97804ZM20.482 1.50778C20.6088 1.63105 20.7106 1.79893 20.7846 1.9717L20.9684 1.89291C20.8878 1.70478 20.773 1.51177 20.6214 1.36438L20.482 1.50778ZM20.0037 1.19794C20.1752 1.26741 20.3358 1.38007 20.4858 1.51134L20.6175 1.36082C20.4582 1.22142 20.2786 1.09348 20.0788 1.01258L20.0037 1.19794ZM19.4381 1.1C19.6305 1.1 19.8334 1.12895 20.0037 1.19794L20.0788 1.01258C19.8779 0.931197 19.6478 0.9 19.4381 0.9V1.1ZM18.8699 1.21396C19.063 1.14176 19.252 1.1 19.4381 1.1V0.9C19.222 0.9 19.0089 0.948467 18.7998 1.02663L18.8699 1.21396ZM18.4096 1.52281C18.5414 1.39471 18.7009 1.28244 18.8724 1.21298L18.7973 1.02761C18.5976 1.10852 18.4168 1.23685 18.2702 1.37941L18.4096 1.52281ZM11.0927 8.63629L18.4096 1.52281L18.2702 1.37941L10.9533 8.49289L11.0927 8.63629ZM3.59064 1.47829L10.9533 8.63629L11.0927 8.49289L3.73005 1.33489L3.59064 1.47829ZM2.57765 1.10059C2.9575 1.10059 3.31916 1.2283 3.5926 1.48015L3.72809 1.33304C3.41379 1.04355 3.00208 0.900588 2.57765 0.900588V1.10059ZM1.58012 1.50837C1.84055 1.25518 2.20248 1.10059 2.57765 1.10059V0.900588C2.14853 0.900588 1.7371 1.07682 1.44071 1.36497L1.58012 1.50837ZM1.16187 2.47423C1.16187 2.11135 1.30483 1.77601 1.58012 1.50837L1.44071 1.36497C1.12825 1.66874 0.96187 2.05518 0.96187 2.47423H1.16187ZM1.5511 3.45704C1.29035 3.18945 1.14749 2.83965 1.16179 2.47818L0.961948 2.47028C0.945314 2.89074 1.1118 3.2928 1.40786 3.59662L1.5511 3.45704ZM7.75159 9.50015L1.54928 3.45522L1.40969 3.59844L7.612 9.64338L7.75159 9.50015ZM9.20503 10.8981L7.75112 9.49969L7.61247 9.64384L9.06638 11.0423L9.20503 10.8981ZM1.54919 18.4853L9.20541 11.0419L9.066 10.8985L1.40977 18.3419L1.54919 18.4853ZM1.21565 18.9492C1.28654 18.7838 1.4014 18.629 1.54919 18.4853L1.40977 18.3419C1.24822 18.499 1.11561 18.6749 1.03182 18.8704L1.21565 18.9492ZM1.1 19.4812C1.1 19.3014 1.14277 19.1193 1.21565 18.9492L1.03182 18.8704C0.950036 19.0613 0.9 19.2701 0.9 19.4812H1.1ZM1.21267 20.022C1.12956 19.8604 1.1 19.6822 1.1 19.4812H0.9C0.9 19.7014 0.932313 19.9141 1.03481 20.1134L1.21267 20.022ZM1.51825 20.4922C1.39145 20.3689 1.28969 20.2011 1.21565 20.0283L1.03182 20.1071C1.11245 20.2952 1.22723 20.4882 1.37884 20.6356L1.51825 20.4922ZM1.99651 20.8021C1.82502 20.7326 1.66442 20.6199 1.5144 20.4887L1.3827 20.6392C1.54202 20.7786 1.72169 20.9065 1.92142 20.9874L1.99651 20.8021ZM2.56218 20.9C2.36977 20.9 2.16682 20.871 1.99651 20.8021L1.92142 20.9874C2.12231 21.0688 2.35244 21.1 2.56218 21.1V20.9ZM3.13037 20.786C2.93727 20.8582 2.74827 20.9 2.56218 20.9V21.1C2.77824 21.1 2.99138 21.0515 3.20042 20.9734L3.13037 20.786ZM3.59064 20.4772C3.45887 20.6053 3.29933 20.7176 3.12785 20.787L3.20294 20.9724C3.40267 20.8915 3.58341 20.7632 3.73005 20.6206L3.59064 20.4772ZM10.9075 13.3637L3.59064 20.4772L3.73005 20.6206L11.0469 13.5071L10.9075 13.3637ZM18.4096 20.5217L11.0469 13.3637L10.9075 13.5071L18.2702 20.6651L18.4096 20.5217ZM19.4226 20.8994C19.0427 20.8994 18.6811 20.7717 18.4076 20.5199L18.2722 20.667C18.5865 20.9564 18.9982 21.0994 19.4226 21.0994V20.8994ZM20.4201 20.4916C20.1597 20.7448 19.7978 20.8994 19.4226 20.8994V21.0994C19.8517 21.0994 20.2631 20.9232 20.5595 20.635L20.4201 20.4916ZM20.8384 19.5258C20.8384 19.8887 20.6954 20.224 20.4201 20.4916L20.5595 20.635C20.872 20.3313 21.0384 19.9448 21.0384 19.5258H20.8384Z" fill="#181725" mask="url(#path-1-outside-1)"/>
</svg>
