<?xml version="1.0" encoding="UTF-8"?>
<svg width="24px" height="28px" viewBox="0 0 24 28" version="1.1" xmlns="http://www.w3.org/2000/svg" xmlns:xlink="http://www.w3.org/1999/xlink">
    <title>btn1</title>
    <g id="Page-2" stroke="none" stroke-width="1" fill="none" fill-rule="evenodd">
        <g id="btn1" fill="#181725">
            <path d="M3.223824,11.521793 L3.223824,11.5335043 C3.311436,14.0206957 4.152672,16.4176174 5.6298,18.3922261 L5.63742,18.4024522 L5.63736,18.4024522 C7.384224,20.7893913 9.527556,22.8425217 11.969016,24.4684696 C12.01464,24.4989043 12.0582,24.5323826 12.09936,24.5689043 C12.10272,24.5718261 12.10452,24.5725565 12.10512,24.5728 C12.10632,24.5731652 12.108,24.5735304 12.11004,24.5735304 C12.1122,24.5735304 12.11388,24.5731652 12.11496,24.5728 C12.11556,24.5725565 12.11736,24.5718261 12.12084,24.5689043 C12.16308,24.5314087 12.20784,24.4970783 12.25488,24.4660348 C13.89276,23.3841391 15.40308,22.1122087 16.75596,20.6753217 C19.13232,18.1083304 20.93184,14.966 20.9963331,11.6949183 L20.9963331,11.5897965 L20.9963331,11.5856939 C21.01308,6.54860348 17.03832,2.46910087 12.14028,2.45201613 C7.24278,2.43505043 3.241596,6.48566435 3.223824,11.521793 Z M0.8238276,11.5155722 C0.8449608,5.1534 5.905584,-0.00439513565 12.14844,0.0172384446 C18.3906,0.0390059478 23.41632,5.2306313 23.3963397,11.5917687 L23.3963397,11.7066661 L23.3963397,11.7295165 C23.3196,15.8627304 21.0786,19.5637217 18.50184,22.3460696 L18.49512,22.3532522 L18.49512,22.3531304 C17.03016,23.9098087 15.39576,25.290087 13.62396,26.4669391 C12.7392,27.1893391 11.47824,27.1888522 10.594116,26.4652348 C7.942176,24.6893043 5.613948,22.4535652 3.714132,19.8590609 C1.934544,17.4777217 0.9250356,14.5897043 0.8245236,11.5961757 C0.8240604,11.5823704 0.8238276,11.568553 0.8238276,11.5547357 L0.8238276,11.5196748 L0.8238276,11.5155722 Z" id="Shape"></path>
            <path d="M8.100588,11.7182678 C8.100588,9.46794435 9.886212,7.62593391 12.1104,7.62593391 C14.3346,7.62593391 16.1202,9.46794435 16.1202,11.7182678 C16.1202,13.9685913 14.3346,15.8106261 12.1104,15.8106261 C9.886212,15.8106261 8.100588,13.9685913 8.100588,11.7182678 Z M12.1104,10.0607165 C11.230944,10.0607165 10.500588,10.7930139 10.500588,11.7182678 C10.500588,12.6434609 11.230944,13.3758435 12.1104,13.3758435 C12.98988,13.3758435 13.7202,12.6434609 13.7202,11.7182678 C13.7202,10.7930139 12.98988,10.0607165 12.1104,10.0607165 Z" id="Shape"></path>
        </g>
    </g>
</svg>