<?xml version="1.0" encoding="UTF-8"?>
<svg width="25px" height="28px" viewBox="0 0 25 28" version="1.1" xmlns="http://www.w3.org/2000/svg" xmlns:xlink="http://www.w3.org/1999/xlink">
    <title>btn5</title>
    <g id="Page-2" stroke="none" stroke-width="1" fill="none" fill-rule="evenodd">
        <g id="btn5" fill="#181725" fill-rule="nonzero">
            <path d="M7.22032353,14.1174667 C7.42742647,14.0474667 7.65013235,14.0110667 7.87529412,14.0104 C8.10045588,14.0098428 8.3235,14.0449333 8.53123529,14.1137333 C8.73897059,14.1824 8.92720588,14.2834667 9.08470588,14.4108 C9.24235294,14.5381333 9.36602941,14.6890667 9.44852941,14.8549333 C9.53117647,15.0208 9.57088235,15.198 9.56544118,15.3761333 C9.55985294,15.5542667 9.50941176,15.7298667 9.41676471,15.8922667 C9.32411765,16.0546667 9.19132353,16.2008 9.02617647,16.322 C8.86088235,16.4430667 8.66675,16.5366667 8.45504412,16.5974667 C7.32904412,16.9485333 6.36263235,17.5598667 5.68155882,18.3517333 C5.00048529,19.1436 4.63627941,20.0794667 4.63633824,21.0374667 L4.63633824,23.3574667 C4.63633824,23.7110667 4.81380882,24.0501333 5.12970588,24.3002667 C5.44560294,24.5502667 5.87405882,24.6908 6.32080882,24.6908 L19.7966176,24.6908 C20.2433824,24.6908 20.6719118,24.5502667 20.9877941,24.3002667 C21.3036765,24.0501333 21.4811765,23.7110667 21.4811765,23.3574667 L21.4811765,21.1614667 C21.4813235,20.1726667 21.1019118,19.2073333 20.3930882,18.3932 C19.6844118,17.5790667 18.6797059,16.9546667 17.5125,16.6028 C17.2994118,16.5442667 17.1035294,16.4525333 16.9360294,16.3329333 C16.7686765,16.2133333 16.6333824,16.0684 16.5380882,15.9065333 C16.4427941,15.7448 16.3894118,15.5696 16.3813235,15.3912 C16.3732353,15.2128 16.4104412,15.0350667 16.4907353,14.8682667 C16.5710294,14.7014667 16.6927941,14.5492 16.8488235,14.4202667 C17.0048529,14.2914667 17.1920588,14.1888 17.3992647,14.1182667 C17.6063235,14.0477333 17.8292647,14.0108 18.0547059,14.0098428 C18.2801471,14.0088 18.5036765,14.0434667 18.7119118,14.1121333 C20.5169118,14.6562667 22.0704412,15.6218667 23.1666176,16.8808 C24.2629412,18.1396 24.8501471,19.6325333 24.8501471,21.1614667 L24.8501471,23.3574667 C24.8501471,24.4182667 24.3176471,25.4357333 23.37,26.1858667 C22.4222059,26.936 21.1369118,27.3574667 19.7966176,27.3574667 L6.32080882,27.3574667 C4.98055882,27.3574667 3.69519118,26.936 2.7475,26.1858667 C1.79979412,25.4357333 1.26738235,24.4182667 1.26738235,23.3574667 L1.26738235,21.0374667 C1.26738235,19.5442667 1.83551471,18.0857333 2.89720588,16.8516 C3.95891176,15.6174667 5.46526471,14.6646667 7.22032353,14.1174667 Z M13.0586765,0.69076 C14.8457353,0.69076 16.5595588,1.25265333 17.8230882,2.25285333 C19.0867647,3.25304 19.7966176,4.6096 19.7966176,6.02409333 L19.7966176,8.69076 C19.7966176,10.10524 19.0867647,11.4617333 17.8230882,12.462 C16.5595588,13.4621333 14.8457353,14.0241333 13.0586765,14.0241333 C11.2717647,14.0241333 9.55794118,13.4621333 8.29430882,12.462 C7.03069118,11.4617333 6.32080882,10.10524 6.32080882,8.69076 L6.32080882,6.02409333 C6.32080882,4.6096 7.03069118,3.25304 8.29430882,2.25285333 C9.55794118,1.25265333 11.2717647,0.69076 13.0586765,0.69076 Z M13.0586765,3.35742667 C12.1652941,3.35742667 11.3083824,3.63837333 10.6764706,4.13846667 C10.0447059,4.63857333 9.68970588,5.31684 9.68970588,6.02409333 L9.68970588,8.69076 C9.68970588,9.398 10.0447059,10.07628 10.6764706,10.5763733 C11.3083824,11.0765333 12.1652941,11.3574667 13.0586765,11.3574667 C13.9522059,11.3574667 14.8091176,11.0765333 15.4408824,10.5763733 C16.0727941,10.07628 16.4276471,9.398 16.4276471,8.69076 L16.4276471,6.02409333 C16.4276471,5.31684 16.0727941,4.63857333 15.4408824,4.13846667 C14.8091176,3.63837333 13.9522059,3.35742667 13.0586765,3.35742667 Z" id="Shape"></path>
        </g>
    </g>
</svg>