<svg width="41" height="41" viewBox="0 0 41 41" fill="none" xmlns="http://www.w3.org/2000/svg">
<rect x="1" y="1" width="39" height="39" rx="10" stroke="#F1F1F1"/>
<path d="M27.4167 19.8333H22.4583C22.2833 19.8333 22.1667 19.7167 22.1667 19.5417V14.5833C22.1667 14.2333 21.9333 14 21.5833 14H20.4167C20.0667 14 19.8333 14.2333 19.8333 14.5833V19.5417C19.8333 19.7167 19.7167 19.8333 19.5417 19.8333H14.5833C14.2333 19.8333 14 20.0667 14 20.4167V21.5833C14 21.9333 14.2333 22.1667 14.5833 22.1667H19.5417C19.7167 22.1667 19.8333 22.2833 19.8333 22.4583V27.4167C19.8333 27.7667 20.0667 28 20.4167 28H21.5833C21.9333 28 22.1667 27.7667 22.1667 27.4167V22.4583C22.1667 22.2833 22.2833 22.1667 22.4583 22.1667H27.4167C27.7667 22.1667 28 21.9333 28 21.5833V20.4167C28 20.0667 27.7667 19.8333 27.4167 19.8333Z" fill="#78B054"/>
</svg>
