<?xml version="1.0" encoding="utf-8"?>
<!-- Generator: Adobe Illustrator 24.0.1, SVG Export Plug-In . SVG Version: 6.00 Build 0)  -->
<svg version="1.1" id="Слой_1" xmlns="http://www.w3.org/2000/svg" xmlns:xlink="http://www.w3.org/1999/xlink" x="0px" y="0px"
	 viewBox="0 0 2773 1738.3" style="enable-background:new 0 0 2773 1738.3;" xml:space="preserve">
<style type="text/css">
	.st0{fill:none;stroke:#000000;stroke-width:0.5;}
	.st1{font-family:'SegoeUI-Bold';}
	.st2{font-size:20px;}
	.st3{font-family:'SegoeUI';}
	.st4{opacity:0.4;fill:#00AEEF;enable-background:new    ;}
	.st5{fill:#27AAE1;}
	.st6{fill:none;stroke:#27AAE1;stroke-width:0.577;}
	.st7{fill-rule:evenodd;clip-rule:evenodd;}
</style>
<g id="trash" transform="translate(-263 -291.75)">
	<g id="Notes">
		<line id="Линия_1" class="st0" x1="263" y1="292" x2="3036" y2="292"/>
		<text transform="matrix(1 0 0 1 263 322)" class="st1 st2">Weight/Scale Variations</text>
		<text transform="matrix(1 0 0 1 518.686 322)" class="st3 st2">Ultralight</text>
		<text transform="matrix(1 0 0 1 837.443 322)" class="st3 st2">Thin</text>
		<text transform="matrix(1 0 0 1 1131.0649 322)" class="st3 st2">Light</text>
		<text transform="matrix(1 0 0 1 1416.3879 322)" class="st3 st2">Regular</text>
		<text transform="matrix(1 0 0 1 1709.7681 322)" class="st3 st2">Medium</text>
		<text transform="matrix(1 0 0 1 2001.644 322)" class="st3 st2">Semibold</text>
		<text transform="matrix(1 0 0 1 2320.0779 322)" class="st3 st2">Bold</text>
		<text transform="matrix(1 0 0 1 2609.644 322)" class="st3 st2">Heavy</text>
		<text transform="matrix(1 0 0 1 2910.5679 322)" class="st3 st2">Black</text>
		<line id="Линия_2" class="st0" x1="263" y1="1903" x2="3036" y2="1903"/>
		<g id="Сгруппировать_2" transform="translate(263 1933)">
			<path id="Контур_84" d="M9.2,0.8c4.3,0,7.9-3.5,7.9-7.9c0-4.3-3.6-7.9-7.9-7.9s-7.8,3.5-7.9,7.9C1.4-2.7,4.9,0.8,9.2,0.8z
				 M9.2-0.7C5.7-0.6,2.9-3.5,2.9-7c0,0,0,0,0-0.1c0-3.5,2.8-6.4,6.3-6.4c0,0,0,0,0.1,0c3.5,0,6.4,2.8,6.4,6.4l0,0
				C15.7-3.5,12.8-0.7,9.2-0.7C9.3-0.7,9.3-0.7,9.2-0.7z M9.2-3.4c0.5,0,0.7-0.3,0.7-0.8v-2.1h2.2C12.7-6.3,13-6.6,13-7
				s-0.3-0.7-0.8-0.7H10V-10c0-0.5-0.3-0.8-0.7-0.8S8.5-10.5,8.5-10v2.2H6.3C5.8-7.8,5.5-7.5,5.5-7s0.4,0.7,0.8,0.7h2.2v2.1
				C8.5-3.8,8.8-3.4,9.2-3.4L9.2-3.4z"/>
		</g>
		<g id="Сгруппировать_3" transform="translate(281.506 1933)">
			<path id="Контур_85" d="M11.7,2.9c5.5,0,9.9-4.5,10-10c0-5.5-4.5-9.9-10-10c-5.5,0-9.9,4.5-10,10C1.8-1.6,6.2,2.9,11.7,2.9
				z M11.7,1.3C7.1,1.3,3.4-2.4,3.4-7c0,0,0,0,0-0.1c0-4.6,3.7-8.3,8.2-8.3c0,0,0,0,0.1,0c4.6,0,8.3,3.7,8.3,8.3l0,0
				C20-2.5,16.3,1.2,11.7,1.3C11.8,1.3,11.7,1.3,11.7,1.3z M11.7-2.4c0.5,0,0.8-0.3,0.8-0.8v-0.1v-2.9h3.1c0.5,0,0.9-0.3,0.9-0.8
				c0-0.4-0.3-0.8-0.8-0.8h-0.1h-3.1v-3.1c0.1-0.4-0.2-0.9-0.7-0.9h-0.1c-0.5,0-0.8,0.4-0.8,0.9v3.1h-3C7.4-7.9,7-7.6,6.9-7.2v0.1
				c0,0.5,0.4,0.8,0.9,0.8h3v2.9C10.9-2.8,11.2-2.4,11.7-2.4L11.7-2.4z"/>
		</g>
		<g id="Сгруппировать_4" transform="translate(304.924 1933)">
			<path id="Контур_86" d="M15,5.7C22,5.6,27.7,0,27.7-7C27.6-14,22-19.7,15-19.7S2.3-14,2.3-7S8,5.6,15,5.7z M15,3.9
				C9,3.9,4.1-1,4.1-7l0,0c0-6,4.8-10.9,10.8-10.9c0,0,0,0,0.1,0c6,0,10.9,4.9,10.9,10.9l0,0C25.9-1,21,3.8,15,3.9L15,3.9L15,3.9z
				 M15-1.1c0.5,0,0.9-0.4,0.9-0.9v-0.1v-4.1h4.2c0.5,0.1,0.9-0.3,1-0.8v-0.1c0-0.5-0.4-0.9-0.9-0.9h-0.1h-4.2v-4.2
				c0.1-0.5-0.3-0.9-0.8-1H15c-0.5,0-0.9,0.4-0.9,0.9v0.1V-8H9.8c-0.5-0.1-1,0.3-1,0.8v0.1c0,0.5,0.4,0.9,0.9,0.9h0.1H14v4.1
				c-0.1,0.5,0.3,0.9,0.8,1C14.9-1.1,14.9-1.1,15-1.1z"/>
		</g>
		<text transform="matrix(1 0 0 1 263 1953)" class="st1 st2">Design Variations</text>
		<text transform="matrix(1 0 0 1 263 1971)" class="st3 st2">Symbols are supported in up to nine weights and three scales.</text>
		<text transform="matrix(1 0 0 1 263 1989)" class="st3 st2">For optimal layout with text and other symbols, vertically align</text>
		<text transform="matrix(1 0 0 1 263 2007)" class="st3 st2">symbols with the adjacent text.</text>
		<rect id="Прямоугольник_3" x="776" y="1919" class="st4" width="3" height="14"/>
		<g id="Сгруппировать_5" transform="translate(779 1933)">
			<path id="Контур_87" d="M10.5,0h1.8L7.2-14.1H5.4L0.2,0H2l1.4-4H9L10.5,0z M6.3-12L6.3-12l2.3,6.4H4L6.3-12z"/>
		</g>
		<rect id="Прямоугольник_4" x="791.6" y="1919" class="st4" width="3" height="14"/>
		<text transform="matrix(1 0 0 1 776 1953)" class="st1 st2">Margins</text>
		<text transform="matrix(1 0 0 1 776 1971)" class="st3 st2">Leading and trailing margins on the left and right side of each symbol</text>
		<text transform="matrix(1 0 0 1 776 1989)" class="st3 st2">can be adjusted by modifying the width of the blue rectangles.</text>
		<text transform="matrix(1 0 0 1 776 2007)" class="st3 st2">Modifications are automatically applied proportionally to all</text>
		<text transform="matrix(1 0 0 1 776 2025)" class="st3 st2">scales and weights.</text>
		<g id="Сгруппировать_6" transform="translate(1289 1933)">
			<path id="Контур_88" d="M2.8,3.1l1.5,1.5C5,5.4,6.1,5.4,6.8,4.8C6.9,4.7,7,4.6,7.1,4.5L17.3-6.7c0.4,0.3,0.9,0.3,1.3,0.2
				l1-0.2L20.3-6v0.5c-0.1,0.6,0.2,1.1,0.6,1.4l0.8,0.8c0.4,0.5,1.1,0.5,1.5,0.1l0.1-0.1l3.3-3.3C27-6.8,27-7.5,26.6-8l-0.1-0.1
				l-0.8-0.8c-0.3-0.4-0.9-0.7-1.4-0.6l-0.5,0.1l-0.7-0.7l0.3-1.1c0.1-0.6-0.1-1.3-0.6-1.6l-2.4-2.4c-3.5-3.5-8.1-3.4-11.2-0.3
				c-0.4,0.4-0.5,1-0.2,1.4s0.9,0.6,1.4,0.4c1.5-0.4,3.2-0.2,4.5,0.7l-0.6,1.6c-0.2,0.5-0.2,1,0,1.5L3,0.4C2.2,0.9,2,2,2.5,2.8
				C2.6,2.9,2.7,3,2.8,3.1z M10.7-15.1c2.6-2,6.2-1.7,8.4,0.7l2.6,2.6c0.2,0.2,0.3,0.5,0.2,0.7l-0.4,1.6L23.1-8H24
				c0.2-0.1,0.5,0,0.6,0.2l0.6,0.6l-2.8,2.7l-0.6-0.6c-0.2-0.1-0.3-0.4-0.2-0.6l0.1-1l-1.6-1.6L18.5-8c-0.2,0.1-0.5,0-0.7-0.2
				l-2.2-2.2c-0.2-0.2-0.3-0.5-0.1-0.7l0.9-2.3c-1.4-1.6-3.7-2.3-5.8-1.7c-0.1,0-0.1,0-0.2,0C10.6-15,10.6-15.1,10.7-15.1L10.7-15.1
				z M4.1,2.4c-0.5-0.5-0.3-0.8,0-1.1l11-10.1l1.2,1.2L6.2,3.3c-0.3,0.4-0.7,0.4-1,0.2C5.1,3.5,5.1,3.4,5,3.4L4.1,2.4z"/>
		</g>
		<text transform="matrix(1 0 0 1 1289 1953)" class="st1 st2">Exporting</text>
		<text transform="matrix(1 0 0 1 1289 1971)" class="st3 st2">Symbols should be outlined when exporting to ensure the</text>
		<text transform="matrix(1 0 0 1 1289 1989)" class="st3 st2">design is preserved when submitting to Xcode.</text>
		<text transform="matrix(1 0 0 1 2910.4819 1933)" class="st3 st2">Template v.1.0</text>
		<text transform="matrix(1 0 0 1 2847.074 1951)" class="st3 st2">Generated from trash</text>
		<text transform="matrix(1 0 0 1 2848.373 1969)" class="st3 st2">Typeset at 100 points</text>
		<text transform="matrix(1 0 0 1 263 726)" class="st3 st2">Small</text>
		<text transform="matrix(1 0 0 1 263 1156)" class="st3 st2">Medium</text>
		<text transform="matrix(1 0 0 1 263 1586)" class="st3 st2">Large</text>
	</g>
	<g id="Guides">
		<g id="H-reference" transform="translate(339 696)">
			<path id="Контур_89" class="st5" d="M54.9,0h2.7l-27-70.5h-2.5L1,0h2.7L13-24.5h32.8L54.9,0z M29.2-67.1h0.2l15.4,40.4h-31
				L29.2-67.1z"/>
		</g>
		<line id="Baseline-S" class="st6" x1="263" y1="696" x2="3036" y2="696"/>
		<line id="Capline-S" class="st6" x1="263" y1="625.5" x2="3036" y2="625.5"/>
		<g id="H-reference-2" transform="translate(339 1126)">
			<path id="Контур_90" class="st5" d="M54.9,0h2.7l-27-70.5h-2.5L1,0h2.7L13-24.5h32.8L54.9,0z M29.2-67.1h0.2l15.4,40.4h-31
				L29.2-67.1z"/>
		</g>
		<line id="Baseline-M" class="st6" x1="263" y1="1126" x2="3036" y2="1126"/>
		<line id="Capline-M" class="st6" x1="263" y1="1055.5" x2="3036" y2="1055.5"/>
		<g id="H-reference-3" transform="translate(339 1556)">
			<path id="Контур_91" class="st5" d="M54.9,0h2.7l-27-70.5h-2.5L1,0h2.7L13-24.5h32.8L54.9,0z M29.2-67.1h0.2l15.4,40.4h-31
				L29.2-67.1z"/>
		</g>
		<line id="Baseline-L" class="st6" x1="263" y1="1556" x2="3036" y2="1556"/>
		<line id="Capline-L" class="st6" x1="263" y1="1485.5" x2="3036" y2="1485.5"/>
		<rect id="left-margin" x="1395.1" y="1030.8" class="st4" width="7.5" height="119.3"/>
		<rect id="right-margin" x="1497.1" y="1030.8" class="st4" width="7.5" height="119.3"/>
	</g>
	<g id="Symbols">
		<g id="Regular-M" transform="translate(1395.11 1126)">
			<path class="st7" d="M95.2-75c2.1,2,2.1,5.2,0,7.2L21.7,3.8c-2.1,2-5.4,2-7.4,0c-2.1-2-2.1-5.2,0-7.2L87.8-75
				C89.8-76.9,93.2-76.9,95.2-75z"/>
			<path class="st7" d="M28.5-71.3c-5.8,0-10.5,4.6-10.5,10.2s4.7,10.2,10.5,10.2S39-55.5,39-61.1C39-66.8,34.3-71.3,28.5-71.3z
				 M7.5-61.1c0-11.3,9.4-20.4,21-20.4s21,9.2,21,20.4c0,11.3-9.4,20.4-21,20.4S7.5-49.8,7.5-61.1z"/>
			<path class="st7" d="M81-20.2c-5.8,0-10.5,4.6-10.5,10.2S75.2,0.2,81,0.2S91.5-4.4,91.5-10S86.8-20.2,81-20.2z M60-10
				c0-11.3,9.4-20.4,21-20.4s21,9.2,21,20.4c0,11.3-9.4,20.4-21,20.4S60,1.3,60-10z"/>
		</g>
	</g>
</g>
</svg>
