<?xml version="1.0" encoding="UTF-8"?>
<svg width="26px" height="27px" viewBox="0 0 26 27" version="1.1" xmlns="http://www.w3.org/2000/svg" xmlns:xlink="http://www.w3.org/1999/xlink">
    <title>btn3</title>
    <g id="Page-2" stroke="none" stroke-width="1" fill="none" fill-rule="evenodd">
        <g id="btn3" fill="#181725" fill-rule="nonzero" stroke="#FFFFFF" stroke-width="0.1">
            <path d="M9.1,9.96951857 C9.789,10.5802714 10.7016,10.9518429 11.7,10.9518429 L14.3,10.9518429 C15.25953,10.9531286 16.18565,10.6031571 16.9,9.96951857 L9.1,9.96951857 Z M9.1,9.96951857 C8.385702,10.6031571 7.459582,10.9531286 6.5,10.9518429 L9.1,9.96951857 Z M7.865,3.23751857 L7.865,3.17323286 L7.8,3.17323286 L3.9,3.17323286 C3.537989,3.17323286 3.190785,3.31545857 2.934802,3.56862857 C2.678819,3.82181143 2.535,4.16518714 2.535,4.52323286 L2.535,7.09466143 C2.535,7.45269429 2.678819,7.79608286 2.934802,8.04925286 C3.190785,8.30242286 3.537989,8.44466143 3.9,8.44466143 L6.5,8.44466143 C6.862024,8.44466143 7.209215,8.30242286 7.465211,8.04925286 C7.721194,7.79608286 7.865,7.45269429 7.865,7.09466143 L7.865,3.23751857 Z M3.913,10.8875571 L3.848,10.8875571 L3.848,10.9518429 L3.848,23.7639857 L3.848,23.8282714 L3.913,23.8282714 L6.5,23.8282714 L6.565,23.8282714 L6.565,23.7639857 L6.565,17.3804143 C6.565,16.7154429 6.832085,16.0777286 7.307482,15.6075429 C7.782892,15.1373571 8.427679,14.8732714 9.1,14.8732714 L11.7,14.8732714 C12.37236,14.8732714 13.01716,15.1373571 13.49257,15.6075429 C13.96798,16.0777286 14.235,16.7154429 14.235,17.3804143 L14.235,23.7639857 L14.235,23.8282714 L14.3,23.8282714 L22.1169,23.8282714 L22.1819,23.8282714 L22.1819,23.7639857 L22.1819,10.9518429 L22.1819,10.8875571 L22.1169,10.8875571 L19.5,10.8875571 C18.51824,10.8875571 17.62085,10.5221571 16.94342,9.92163857 L16.9,9.88317 L16.85658,9.92166429 C16.15419,10.5447857 15.24367,10.8888429 14.30013,10.8875571 L14.3,10.8875571 L11.7,10.8875571 C10.71824,10.8875571 9.820902,10.5221571 9.143381,9.92163857 L9.099987,9.88317 L9.056606,9.92166429 C8.354242,10.5447857 7.443618,10.8888429 6.500091,10.8875571 L6.5,10.8875571 L3.913,10.8875571 Z M1.310621,9.89381571 C0.925249,9.54568286 0.61581,9.12308143 0.40157,8.65189286 C0.178971,8.16233143 0.064246,7.63153714 0.0649963074,7.09475143 L0.0649963074,7.09466143 L0.0649963074,4.52323286 C0.0649963074,3.51730286 0.469053,2.55256714 1.188252,1.84127143 C1.907451,1.12997571 2.882893,0.730375714 3.9,0.730375714 L22.1,0.730375714 C23.11712,0.730375714 24.09251,1.12997571 24.8118,1.84127143 C25.53096,2.55256714 25.935,3.51730286 25.935,4.52323286 L25.935,7.09466143 C25.935,8.2098 25.44932,9.21355714 24.67335,9.90768857 L24.6519,9.92683286 L24.6519,9.95537571 L24.6519,23.7639857 C24.6519,24.4288286 24.38488,25.0665429 23.90947,25.5367286 C23.43406,26.0069143 22.78926,26.2711286 22.1169,26.2711286 L12.1849,26.2711286 L12.1849,26.2699714 L12.17281,26.2721571 C12.01694,26.3013429 11.8586,26.3161286 11.7,26.3161286 L9.1,26.3161286 C8.941374,26.3161286 8.783073,26.3013429 8.627177,26.2721571 L8.627398,26.2711286 L8.6151,26.2711286 L3.9143,26.2711286 C3.241979,26.2711286 2.597192,26.0069143 2.121782,25.5367286 C1.646385,25.0665429 1.3793,24.4288286 1.3793,23.7639857 L1.3793,9.98109 L1.3793,9.82590429 L1.310621,9.89381571 Z M11.765,17.3804143 L11.765,17.3161286 L11.7,17.3161286 L9.1,17.3161286 L9.035,17.3161286 L9.035,17.3804143 L9.035,23.7639857 L9.035,23.8282714 L9.1,23.8282714 L11.7,23.8282714 L11.7,23.7652714 L11.765,23.7652714 L11.765,23.7639857 L11.765,23.6997 L11.765,17.3804143 Z M15.665,3.23751857 L15.665,3.17323286 L15.6,3.17323286 L10.4,3.17323286 L10.335,3.17323286 L10.335,3.23751857 L10.335,7.09466143 C10.335,7.45269429 10.47878,7.79608286 10.73475,8.04925286 C10.99085,8.30242286 11.33795,8.44466143 11.7,8.44466143 L14.3,8.44466143 C14.66205,8.44466143 15.00928,8.30242286 15.26525,8.04925286 C15.52122,7.79608286 15.665,7.45269429 15.665,7.09466143 L15.665,3.23751857 Z M18.2,3.17323286 L18.135,3.17323286 L18.135,3.23751857 L18.135,7.09466143 C18.135,7.45269429 18.27878,7.79608286 18.53475,8.04925286 C18.79085,8.30242286 19.13795,8.44466143 19.5,8.44466143 L22.1,8.44466143 C22.46205,8.44466143 22.80928,8.30242286 23.06525,8.04925286 C23.32122,7.79608286 23.465,7.45269429 23.465,7.09466143 L23.465,4.52323286 C23.465,4.16518714 23.32122,3.82181143 23.06525,3.56862857 C22.80928,3.31545857 22.46205,3.17323286 22.1,3.17323286 L18.2,3.17323286 Z M18.2,14.8732714 L19.5,14.8732714 C19.8276,14.8732714 20.14168,15.0019714 20.37334,15.2309571 C20.60487,15.4600714 20.735,15.7707 20.735,16.0947 L20.735,19.9518429 C20.735,20.2757143 20.60487,20.5864714 20.37334,20.8154571 C20.14168,21.0445714 19.8276,21.1732714 19.5,21.1732714 L18.2,21.1732714 C17.8724,21.1732714 17.55832,21.0445714 17.32679,20.8154571 C17.09513,20.5864714 16.965,20.2757143 16.965,19.9518429 L16.965,16.0947 C16.965,15.7707 17.09513,15.4600714 17.32679,15.2309571 C17.55832,15.0019714 17.8724,14.8732714 18.2,14.8732714 Z" id="Shape"></path>
        </g>
    </g>
</svg>