<svg width="11" height="16" viewBox="0 0 11 16" fill="none" xmlns="http://www.w3.org/2000/svg">
<path fill-rule="evenodd" clip-rule="evenodd" d="M10.7812 11.1587L6.02812 15.787C5.73645 16.071 5.26355 16.071 4.97188 15.787L0.218756 11.1587C-0.0729184 10.8746 -0.0729184 10.4141 0.218756 10.1301C0.510432 9.84611 0.98333 9.84611 1.27501 10.1301L4.75312 13.5169L4.75312 0.746881C4.75312 0.33439 5.08751 -2.58443e-07 5.5 -2.40413e-07C5.91249 -2.22382e-07 6.24688 0.33439 6.24688 0.74688L6.24688 13.5169L9.72499 10.1301C10.0167 9.84612 10.4896 9.84612 10.7812 10.1301C11.0729 10.4142 11.0729 10.8746 10.7812 11.1587Z" fill="#959595"/>
</svg>
