<?xml version="1.0" encoding="UTF-8"?>
<svg width="25px" height="25px" viewBox="0 0 25 25" version="1.1" xmlns="http://www.w3.org/2000/svg" xmlns:xlink="http://www.w3.org/1999/xlink">
    <title>Union</title>
    <g id="Page-2" stroke="none" stroke-width="1" fill="none" fill-rule="evenodd">
        <g id="Union" fill="#78B054">
            <path d="M20.3798,19.4671 C20.4052,19.4386 20.4317,19.4116 20.4594,19.386 L20.4644,19.3815 C20.4746,19.3721 20.485,19.363 20.4955,19.3541 C20.8687,19.0375 21.4151,18.9839 21.8183,19.2778 C22.2665,19.6044 22.3676,20.2359 22.0054,20.6559 C20.2919,22.6432 17.989,24.049 15.4177,24.6602 C12.5191,25.3492 9.46953,24.9833 6.81697,23.6283 C4.1644,22.2733 2.08283,20.018 0.946378,17.2678 C-0.190074,14.5176 -0.306882,11.4528 0.616949,8.6243 C1.54078,5.79581 3.44467,3.38907 5.98642,1.83667 C8.52817,0.284258 11.5411,-0.312023 14.4837,0.154996 C17.4263,0.622015 20.1056,2.12171 22.04,4.38453 C23.7562,6.392 24.7862,8.88329 24.9969,11.4973 C25.0414,12.0499 24.5878,12.4999998 24.0335,12.4999998 C23.5337,12.4999998 23.1233,12.1339 23.0085,11.6575 C23.0059,11.6467 23.0034,11.6358 23.0011,11.6249 L23.0003,11.621 C22.9919,11.5806 22.9857,11.5395 22.9817,11.4978 C22.7765,9.36152 21.919,7.33039 20.5132,5.68594 C18.889,3.78598 16.6393,2.52678 14.1686,2.13465 C11.6979,1.74253 9.16808,2.24319 7.03392,3.54665 C4.89977,4.85011 3.30119,6.8709 2.52551,9.24582 C1.74982,11.6207 1.8479,14.194 2.80211,16.5032 C3.75632,18.8124 5.50409,20.706 7.73128,21.8437 C9.95848,22.9815 12.5191,23.2887 14.9528,22.7102 C17.0601,22.2093 18.9526,21.0728 20.3798,19.4671 Z M11.4841,13.07 C11.2158,13.6312 11.7687,14.1653 12.3909,14.1653 L12.6385,14.1653 C13.1238,14.1653 13.4786,13.7277 13.7709,13.3403 C13.94,13.106 14.2086,12.8208 14.5766,12.4847 C14.8849,12.1995 15.1336,11.95 15.3226,11.7361 C15.5215,11.512 15.6856,11.2421 15.8149,10.9264 C15.9542,10.6106 16.0238,10.244 16.0238,9.82639 C16.0238,8.94028 15.6757,8.24768 14.9794,7.74861 C14.2931,7.24954 13.378,7 12.2342,7 C11.2594,7 10.414,7.17824 9.69784,7.53472 C9.33354,7.71861 9.00762,7.94181 8.72008,8.2043 C8.27361,8.61188 8.44009,9.3045 8.95828,9.61586 C9.44181,9.90639 10.055,9.74341 10.5238,9.42965 C10.5895,9.38564 10.6574,9.34474 10.7273,9.30694 C11.0953,9.10324 11.5131,9.00139 11.9806,9.00139 C12.4679,9.00139 12.8559,9.11343 13.1443,9.3375 C13.4427,9.55139 13.5919,9.84676 13.5919,10.2236 C13.5919,10.4884 13.5123,10.7278 13.3532,10.9417 C13.204,11.1454 12.9653,11.4 12.637,11.7056 C12.1894,12.1231 11.8463,12.5051 11.6076,12.8514 C11.5619,12.9206 11.5207,12.9934 11.4841,13.07 Z M11.3688,17.6028 C11.6474,17.8676 11.9905,18 12.3983,18 C12.8061,18 13.1443,17.8676 13.4129,17.6028 C13.6914,17.3278 13.8306,16.9968 13.8306,16.6097 C13.8306,16.2227 13.6963,15.9019 13.4278,15.6472 C13.1592,15.3824 12.8161,15.25 12.3983,15.25 C11.9806,15.25 11.6374,15.3824 11.3688,15.6472 C11.1003,15.9019 10.966,16.2227 10.966,16.6097 C10.966,16.9968 11.1003,17.3278 11.3688,17.6028 Z" id="Shape"></path>
        </g>
    </g>
</svg>