<svg width="115" height="28" viewBox="0 0 115 28" fill="none" xmlns="http://www.w3.org/2000/svg">
<path fill-rule="evenodd" clip-rule="evenodd" d="M0 0.368145L0.671369 0L5.18322 7.7065L4.51186 8.07465L0 0.368145ZM19.3247 0.000846551L14.8125 7.70664L15.4839 8.0746L19.9962 0.368812L19.3247 0.000846551ZM15.9021 10.8142C13.6399 10.8142 11.8041 12.5941 11.8041 14.7787C11.8041 16.9672 13.6439 18.7432 15.9021 18.7432C18.1643 18.7432 20 16.9633 20 14.7787C20 12.5941 18.1602 10.8142 15.9021 10.8142ZM15.9021 17.9927C14.0704 17.9927 12.5798 16.5507 12.5798 14.7787C12.5798 13.0067 14.0704 11.5647 15.9021 11.5647C17.7338 11.5647 19.2243 13.0067 19.2243 14.7787C19.2243 16.5507 17.7338 17.9927 15.9021 17.9927ZM4.09944 10.8142C1.83723 10.8142 0.00147156 12.5941 0.00147156 14.7787C-0.00258986 16.9672 1.83723 18.7432 4.09944 18.7432C6.36165 18.7432 8.19742 16.9633 8.19742 14.7787C8.19742 12.5941 6.35759 10.8142 4.09944 10.8142ZM4.09944 17.9927C2.26774 17.9927 0.777203 16.5507 0.777203 14.7787C0.777203 13.0067 2.26774 11.5647 4.09944 11.5647C5.93114 11.5647 7.42168 13.0067 7.42168 14.7787C7.42168 16.5507 5.93114 17.9927 4.09944 17.9927ZM9.13974 10.9282L10.675 13.1639V10.9282H11.4507V14.7788H10.8496L9.29001 12.5038V14.7788H8.51428V10.9282H9.13974ZM8.53467 15.7924H9.5947V18.696H10.3704V15.7924H11.4508V15.0419H8.53467V15.7924ZM3.97314 22.1691C3.97314 25.3831 6.67805 27.9999 10.0003 27.9999C13.3225 27.9999 16.0234 25.3831 16.0274 22.1691H15.2558C15.2558 24.9745 12.9001 27.2534 10.0003 27.2534C7.10044 27.2534 4.74481 24.9706 4.74481 22.1691H3.97314Z" fill="#78B054"/>
<path d="M31 20.4521V9.08521H36.0858C37.3362 9.08521 38.3337 9.41508 39.0362 10.0473C39.7667 10.6796 40.132 11.4905 40.132 12.5214C40.132 13.5385 39.7667 14.3769 39.0362 15.0092C38.3197 15.6415 37.3222 15.9713 36.0858 15.9713H33.3884V20.4659H31V20.4521ZM33.3884 13.9646H35.9172C37.0693 13.9646 37.7437 13.456 37.7437 12.5489C37.7437 11.6417 37.0693 11.1332 35.9172 11.1332H33.3884V13.9646Z" fill="#78B054"/>
<path d="M41.9302 20.4521V9.08521H50.4581V11.1882H44.3326V13.3873H49.2779V15.449H44.3326V18.3767H50.6548V20.4659H41.9302V20.4521Z" fill="#78B054"/>
<path d="M51.7783 9.08521H61.5285V11.1882H57.8336V20.4659H55.4452V11.1882H51.7783V9.08521Z" fill="#78B054"/>
<path d="M66.7139 20.4521V9.08521H75.2277V11.1882H69.1022V13.4973H73.8369V15.559H69.1022V20.4659H66.7139V20.4521Z" fill="#78B054"/>
<path d="M77.9806 10.5833C79.1326 9.42877 80.5657 8.86523 82.2937 8.86523C84.0218 8.86523 85.4548 9.42877 86.5928 10.5833C87.7449 11.7241 88.3209 13.1124 88.3209 14.7755C88.3209 16.4111 87.7449 17.8131 86.5928 18.9676C85.4408 20.1222 84.0218 20.6857 82.2937 20.6857C80.5657 20.6857 79.1186 20.1222 77.9806 18.9676C76.8286 17.8131 76.2666 16.4111 76.2666 14.7755C76.2666 13.1124 76.8286 11.7241 77.9806 10.5833ZM82.2937 18.4866C83.3193 18.4866 84.1763 18.1292 84.8507 17.4282C85.5251 16.7272 85.8763 15.8338 85.8763 14.7617C85.8763 13.6896 85.5251 12.7962 84.8507 12.0952C84.1763 11.3943 83.3193 11.0369 82.2937 11.0369C81.2681 11.0369 80.3971 11.3943 79.7227 12.0952C79.0484 12.7962 78.7112 13.6896 78.7112 14.7617C78.7112 15.8338 79.0484 16.7272 79.7227 17.4282C80.3971 18.1292 81.2681 18.4866 82.2937 18.4866Z" fill="#78B054"/>
<path d="M91.777 10.5833C92.929 9.42877 94.3621 8.86523 96.0901 8.86523C97.8182 8.86523 99.2512 9.42877 100.389 10.5833C101.541 11.7241 102.117 13.1124 102.117 14.7755C102.117 16.4111 101.541 17.8131 100.389 18.9676C99.2372 20.1222 97.8182 20.6857 96.0901 20.6857C94.3621 20.6857 92.915 20.1222 91.777 18.9676C90.625 17.8131 90.063 16.4111 90.063 14.7755C90.077 13.1124 90.639 11.7241 91.777 10.5833ZM96.1042 18.4866C97.1298 18.4866 97.9868 18.1292 98.6611 17.4282C99.3355 16.7272 99.6867 15.8338 99.6867 14.7617C99.6867 13.6896 99.3355 12.7962 98.6611 12.0952C97.9868 11.3943 97.1298 11.0369 96.1042 11.0369C95.0786 11.0369 94.2075 11.3943 93.5332 12.0952C92.8588 12.7962 92.5216 13.6896 92.5216 14.7617C92.5216 15.8338 92.8588 16.7272 93.5332 17.4282C94.2075 18.1292 95.0645 18.4866 96.1042 18.4866Z" fill="#78B054"/>
<path d="M104.28 20.4521V9.08521H108.636C110.518 9.08521 112.064 9.62125 113.23 10.6796C114.41 11.7379 115 13.0987 115 14.7755C115 16.4524 114.41 17.8269 113.23 18.8852C112.05 19.9436 110.504 20.4659 108.636 20.4659H104.28V20.4521ZM106.669 18.3629H108.425C111.01 18.3629 112.541 17.0297 112.541 14.7755C112.541 12.5214 111.01 11.1882 108.425 11.1882H106.669V18.3629Z" fill="#78B054"/>
</svg>
