<?xml version="1.0" encoding="UTF-8"?>
<svg width="28px" height="25px" viewBox="0 0 28 25" version="1.1" xmlns="http://www.w3.org/2000/svg" xmlns:xlink="http://www.w3.org/1999/xlink">
    <title>Vector</title>
    <g id="Page-2" stroke="none" stroke-width="1" fill="none" fill-rule="evenodd">
        <g id="Vector" fill="#78B054" fill-rule="nonzero">
            <path d="M10.8447182,24.453625 C10.0192909,24.453625 9.22768,24.131625 8.64400727,23.558375 C8.06034727,22.985125 7.73244182,22.207625 7.73244182,21.396875 C7.73244182,20.58625 8.06034727,19.80875 8.64400727,19.2355 C9.22768,18.66225 10.0192909,18.34025 10.8447182,18.34025 C11.6701582,18.34025 12.4617691,18.66225 13.0454545,19.2355 C13.6291273,19.80875 13.9569818,20.58625 13.9569818,21.396875 C13.9569818,22.207625 13.6291273,22.985125 13.0454545,23.558375 C12.4617691,24.131625 11.6701582,24.453625 10.8447182,24.453625 Z M21.7376727,24.453625 C20.9123091,24.453625 20.1206727,24.131625 19.537,23.558375 C18.9533273,22.985125 18.6254727,22.207625 18.6254727,21.396875 C18.6254727,20.58625 18.9533273,19.80875 19.537,19.2355 C20.1206727,18.66225 20.9123091,18.34025 21.7376727,18.34025 C22.5631636,18.34025 23.3548,18.66225 23.9384727,19.2355 C24.5221455,19.80875 24.85,20.58625 24.85,21.396875 C24.85,22.207625 24.5221455,22.985125 23.9384727,23.558375 C23.3548,24.131625 22.5631636,24.453625 21.7376727,24.453625 Z M1.44874545,2.939025 C1.06027473,2.9267125 0.691904182,2.7665 0.421536182,2.4922625 C0.151168182,2.2180125 0,1.85125 0,1.4695125 C0,1.08777625 0.151168182,0.7210075 0.421536182,0.44676375 C0.691904182,0.17252125 1.06027473,0.012306 1.44874545,0 L3.23986727,0 C4.64350727,0 5.85729455,0.95674875 6.16230364,2.3017 L8.11214727,10.9246625 C8.41714364,12.2696125 9.63093091,13.226375 11.0345709,13.226375 L22.7242909,13.226375 L24.9682364,4.407775 L10.4261182,4.407775 C10.0413091,4.390525 9.67807273,4.22825 9.41195818,3.9546875 C9.14585636,3.6811375 8.99735455,3.3173625 8.99735455,2.939025 C8.99735455,2.5606875 9.14585636,2.1969125 9.41195818,1.92335 C9.67807273,1.6498 10.0413091,1.487525 10.4261182,1.470275 L24.9682364,1.470275 C25.4231091,1.4701375 25.8721273,1.571875 26.2810545,1.76775 C26.6898545,1.9636125 27.0478727,2.24845 27.3278727,2.600625 C27.6077455,2.9527875 27.8023455,3.363 27.8966545,3.8000875 C27.9909636,4.237175 27.9824364,4.689625 27.8719636,5.1230375 L25.6280182,13.938625 C25.4662545,14.574625 25.0925818,15.139375 24.5664364,15.542875 C24.0402909,15.946375 23.3918364,16.1653751 22.7242909,16.1653751 L11.0345709,16.1653751 C9.67262545,16.165625 8.35135636,15.7095 7.28896,14.8725 C6.22657636,14.035625 5.4866,12.86775 5.19126364,11.5619875 L3.23986727,2.939025 L1.44874545,2.939025 Z" id="Shape"></path>
        </g>
    </g>
</svg>