<svg width="227" height="245" viewBox="0 0 227 245" fill="none" xmlns="http://www.w3.org/2000/svg">
<path opacity="0.2" d="M4.39536 222.161C-4.45604 198.649 0.433233 178.825 15.7165 158.856C30.8777 139.047 37.8312 130.713 81.4518 124.657C126.006 118.472 135.849 130.18 162.16 150.124C177.194 161.52 191.287 167.564 194.297 186.143C197.252 204.377 190.837 218.676 176.038 229.801C158.392 243.066 140.248 222.888 119.432 229.801C98.616 236.713 20.2061 264.159 4.39536 222.161Z" fill="#E0E441"/>
<path d="M13 232C13 235.872 52.1753 239 100.5 239C148.825 239 188 235.872 188 232C188 228.128 148.825 225 100.5 225C52.1753 225 13 228.157 13 232Z" fill="url(#paint0_linear)"/>
<path d="M82.513 117.342C87.5419 116.261 92.7693 117.783 96.4969 121.334C98.1291 122.9 99.9378 124.864 101.592 127.157C105.695 132.87 97.8424 138.539 98.879 140.48C99.9157 142.421 102.342 143.943 101.283 148.002C100.224 152.06 93.2546 157.31 90.9607 157.531C67.9115 159.891 57.8977 147.186 65.5955 140.326C73.3154 133.466 70.1612 123.54 76.4253 119.658C78.3663 118.511 80.5058 117.783 82.513 117.342Z" fill="#9A3700"/>
<path d="M94.5556 153.516C94.5556 153.516 115.598 163.707 119.546 163.53C123.494 163.354 148.131 154.685 148.131 154.685L147.514 158.854C147.514 158.854 128.766 169.64 122.215 170.258C115.752 170.853 93.6954 164.457 91.578 163.111C89.4385 161.766 88.3798 154.884 94.5556 153.516Z" fill="#FEF0D6"/>
<path d="M96.8716 163.133C94.9747 164.457 92.5705 165.538 89.5708 166.243C78.3219 168.846 73.9988 159.34 72.3887 152.811C73.9326 151.928 75.3663 151.73 76.2045 151.641C77.0206 151.553 77.8808 151.487 78.5866 151.443C79.8438 150.472 81.7407 146.524 82.1598 140.37L82.6891 140.502L91.5559 142.929C91.5559 142.929 91.1589 145.752 90.9604 148.421C90.806 150.517 90.7839 152.502 91.181 152.987C91.8647 153.141 92.2838 153.23 92.2838 153.23C92.3941 153.428 94.9526 157.663 96.8716 163.133Z" fill="#FEF0D6"/>
<path d="M91.5562 142.929C91.5562 142.929 91.1592 145.752 90.9607 148.421C85.9318 147.914 83.5938 143.127 82.6895 140.502L91.5562 142.929Z" fill="#FFE2A9"/>
<path d="M93.0561 145.576C93.0561 145.576 81.1235 144.914 81.6528 137.503C82.1822 130.091 80.9911 124.996 88.6228 125.106C96.2544 125.217 97.5336 128.15 97.9748 130.665C98.3939 133.179 96.1661 145.554 93.0561 145.576Z" fill="#FEF0D6"/>
<path d="M94.0188 138.719C93.3093 137.863 93.1316 136.04 93.233 134.876C93.4748 135.976 93.8261 137.886 94.386 138.573L94.4904 138.712C94.4211 138.764 93.7017 139.567 92.7444 139.507C93.0494 139.45 93.6936 139.095 94.0188 138.719Z" fill="#452140"/>
<path d="M91.1754 131.187C91.1754 131.187 90.6366 130.615 89.5297 130.384C88.4229 130.153 86.0989 131.449 86.0989 131.449C86.0989 131.449 88.4279 130.824 89.0972 130.819C89.7354 130.86 90.7911 131.455 90.7911 131.455L91.1754 131.187Z" fill="#BA9126"/>
<path d="M94.3321 131.633C94.3321 131.633 94.7194 131.167 95.5824 130.929C96.4072 130.699 98.2817 131.46 98.2817 131.46C98.2817 131.46 96.4534 131.164 95.9507 131.217C95.4479 131.27 94.6793 131.806 94.6793 131.806L94.3321 131.633Z" fill="#9A3700"/>
<path d="M90.7965 134.06C90.3721 133.467 89.3274 133.146 88.6652 133.189C87.736 133.281 87.1098 133.949 86.5308 134.016C87.3777 134.334 87.757 133.395 89.7449 133.701C90.1162 133.79 90.4493 133.887 90.7965 134.06Z" fill="#2E162B"/>
<path d="M97.9082 126.496C96.2319 124.135 94.7982 124.533 93.9821 125.128C87.7181 121.092 83.1523 126.077 83.1523 126.077C81.9613 131.348 77.9028 134.128 77.9028 134.128C77.9028 134.128 80.0203 135.826 85.0712 134.701C91.5339 133.267 93.7616 127.643 94.0704 126.782C94.7541 127.488 95.6364 127.929 96.2981 129.473C97.0921 131.282 97.5994 132.341 97.6215 135.341C97.6215 135.341 100.423 130.047 97.9082 126.496Z" fill="#CF4E06"/>
<path d="M68.9921 187.375C67.9113 181.86 64.4043 159.869 67.9113 152.789C69.1685 150.252 74.1313 150.009 79.5572 150.23C81.2556 151.311 87.6961 155.435 90.3209 154.928C90.3429 154.928 90.4091 154.906 90.4753 154.884C91.7104 154.575 92.1957 153.693 91.159 152.943C91.159 152.943 93.5411 153.119 96.8937 153.737C98.7906 154.09 103.952 157.266 103.952 157.266C103.952 157.266 101.592 160.928 97.8201 162.516C98.4598 168.273 97.5113 170.787 91.556 184.066C86.5271 195.293 92.2398 205.396 92.2398 205.396C92.2398 205.396 62.5736 229.284 62.3971 217.152C62.2868 207.998 70.3816 194.433 68.9921 187.375Z" fill="#FBC403"/>
<path d="M93.6955 231.357C95.3056 231.181 96.7613 230.298 97.6657 228.953C97.798 228.732 97.9524 228.512 98.1288 228.269C101.504 223.152 102.827 207.513 110.414 190.838C112.267 186.779 118.906 186.051 120.715 181.463C120.715 181.463 125.17 166.596 112.179 166.155C99.1876 165.714 77.3956 207.535 77.0647 211.925C76.7118 216.16 68.4626 234.203 93.6955 231.357Z" fill="#754C24"/>
<path d="M145.308 231.291H126.825C126.825 231.291 126.141 228.269 127.354 226.196C128.435 224.365 128.016 223.328 127.222 221.828C128.06 222.181 129.141 222.49 130.332 222.424C131.258 222.38 132.229 221.938 133.089 221.431C133.883 222.358 137.28 226.328 138.36 227.1C139.552 228.004 144.933 227.695 145.308 231.291Z" fill="#D59900"/>
<path d="M121.134 170.435C122.237 178.772 126.582 205.109 134.258 217.946C136.728 222.093 128.038 224.409 127.994 224.387C126.825 224.078 124.884 222.225 123.979 221.409C117.759 215.807 105.121 199.925 105.121 187.176C105.121 180.978 105.011 169.111 109.532 166.089C112.289 164.281 120.671 167.126 121.134 170.435Z" fill="#754C24"/>
<path d="M84.6743 231.379C84.6743 231.379 85.6007 229.967 86.1962 227.894C87.1888 224.409 87.5417 221.872 89.4606 216.446C91.4678 210.755 93.8499 203.741 96.8055 196.44C97.7319 194.19 98.7024 191.918 99.739 189.624C101.592 185.566 106.687 186.117 108.496 181.529C108.496 181.529 115.554 165.626 102.584 165.185C89.5709 164.743 64.9116 207.733 63.4999 211.902C61.9339 216.468 56.3536 235.746 84.6743 231.379Z" fill="#C87626"/>
<path d="M131.743 231.291H113.26C113.26 231.291 112.576 228.269 113.789 226.196C114.87 224.365 114.451 223.328 113.657 221.828C114.495 222.181 115.576 222.49 116.767 222.424C117.693 222.38 118.664 221.938 119.524 221.431C120.318 222.358 123.715 226.328 124.796 227.1C125.987 228.004 131.368 227.695 131.743 231.291Z" fill="#F9B300"/>
<path d="M89.4607 216.447C91.4679 210.756 93.85 203.741 96.8056 196.44C96.0336 190.904 94.3573 186.073 91.534 184.132C91.534 184.11 84.7185 205.263 89.4607 216.447Z" fill="#9E560F"/>
<path d="M110.326 169.839C111.429 178.176 113.017 205.109 120.671 217.946C123.141 222.093 114.451 224.409 114.407 224.387C113.238 224.078 111.297 222.225 110.393 221.409C104.173 215.829 91.5562 199.947 91.5562 187.22C91.5562 181.022 98.8349 169.662 103.356 166.64C106.136 164.766 109.885 166.53 110.326 169.839Z" fill="#C87626"/>
<path d="M150.337 143.943L131.412 141.936C130.861 141.87 130.332 142.201 130.133 142.708L123.362 160.509C123.075 161.281 123.626 162.141 124.465 162.163L143.235 162.913C143.742 162.935 144.205 162.626 144.404 162.163L151.33 145.62C151.66 144.87 151.153 144.032 150.337 143.943Z" fill="#233862"/>
<path d="M151.991 144.12L133.067 142.112C132.515 142.046 131.986 142.377 131.787 142.884L125.016 160.685C124.729 161.457 125.281 162.317 126.119 162.339L144.889 163.089C145.396 163.111 145.86 162.802 146.058 162.339L152.984 145.796C153.293 145.046 152.807 144.208 151.991 144.12Z" fill="#2B478B"/>
<path d="M141.492 152.413C141.713 151.773 141.404 151.266 140.764 151.266C140.125 151.266 139.419 151.773 139.198 152.413C138.978 153.053 139.287 153.56 139.926 153.56C140.566 153.56 141.272 153.053 141.492 152.413Z" fill="#EBF3FA"/>
<path d="M151.418 145.796C151.528 145.487 151.374 145.223 151.065 145.223C150.756 145.223 150.403 145.465 150.293 145.796C150.183 146.105 150.337 146.37 150.646 146.37C150.955 146.37 151.307 146.105 151.418 145.796Z" fill="#EBF3FA"/>
<path d="M72.3886 152.811C72.3886 152.811 98.614 162.472 102.562 162.273C105.099 162.141 126.273 154.707 126.273 154.707L128.17 158.303C128.17 158.303 107.569 171.559 101.9 171.493C90.7177 171.361 71.8372 164.501 69.7198 163.155C67.6023 161.766 66.2128 154.156 72.3886 152.811Z" fill="#FEF0D6"/>
<path d="M126.295 154.685C126.295 154.685 128.192 151.751 130.089 151.663C131.986 151.575 135.25 152.965 136.375 153.163C137.5 153.384 140.676 154.42 139.728 155.964C138.779 157.508 134.39 157.861 132.493 157.508C130.596 157.156 128.192 158.258 128.192 158.258L126.295 154.685Z" fill="#FEF0D6"/>
<path d="M129.56 151.774C129.56 151.774 132.559 150.384 133.419 150.141C134.28 149.877 134.103 150.141 133.861 150.958C133.596 151.774 132.052 152.546 132.052 152.81C132.052 153.053 129.56 151.774 129.56 151.774Z" fill="#FEF0D6"/>
<path d="M150.028 153.141C150.028 153.141 148.837 149.193 147.514 150.428C146.146 151.73 146.985 153.009 147.139 154.663C147.47 157.818 148.087 157.685 148.507 157.531C148.904 157.398 150.47 154.729 150.028 153.141Z" fill="#FEF0D6"/>
<path d="M150.117 153.737C150.117 153.737 150.734 157.112 147.536 158.854L148.485 156.538L150.117 153.737Z" fill="#FEF0D6"/>
<path d="M95 142.011C95 142.011 94.1762 141.768 91 142.011C91 142.011 91.162 140.878 93.5 141.011C94.8234 141.099 95 142.011 95 142.011Z" fill="#2E162B"/>
<path d="M85.9095 157.575C85.9095 157.575 83.5715 165.008 75.4988 166.685C75.4988 166.685 62.1986 162.582 68.8156 153.516C68.8156 153.516 75.3665 148.642 85.9095 157.575Z" fill="#FF9040"/>
<path d="M150.117 154.222C150.117 154.222 150.668 152.369 150.712 152.038C150.734 151.707 150.712 151.553 150.425 151.773C150.139 151.994 149.697 152.59 149.83 153.163C149.94 153.737 150.117 154.222 150.117 154.222Z" fill="#FEF0D6"/>
<path d="M94.564 134.394C95.0066 133.799 96.0531 133.488 96.6984 133.567C97.6246 133.673 98.2226 134.353 98.7916 134.445C97.9357 134.721 97.5694 133.801 95.6106 134.083C95.2293 134.153 94.8861 134.216 94.564 134.394Z" fill="#2E162B"/>
<circle opacity="0.2" cx="122.5" cy="111.5" r="5.5" fill="#E0E441"/>
<circle opacity="0.2" cx="138.5" cy="94.5" r="8.5" fill="#E0E441"/>
<circle opacity="0.2" cx="181" cy="46" r="46" fill="#E0E441"/>
<path d="M177.31 52.1922C177.31 49.9682 177.567 48.2164 178.081 46.9368C178.594 45.642 179.427 44.5224 180.58 43.578C181.732 42.6335 182.604 41.7729 183.195 40.996C183.803 40.2039 184.106 39.3356 184.106 38.3911C184.106 36.091 183.094 34.9409 181.07 34.9409C180.136 34.9409 179.381 35.276 178.805 35.9462C178.229 36.6165 177.925 37.5229 177.894 38.6653H170C170.031 35.6187 171.012 33.25 172.943 31.5591C174.873 29.853 177.582 29 181.07 29C184.542 29 187.228 29.7845 189.127 31.3535C191.042 32.9225 192 35.1541 192 38.0484C192 39.3127 191.743 40.4628 191.229 41.4987C190.715 42.5345 189.89 43.5932 188.754 44.6747L186.068 47.1196C185.305 47.8356 184.776 48.5744 184.48 49.336C184.184 50.0824 184.021 51.0345 183.989 52.1922H177.31ZM176.352 59.1384C176.352 58.0112 176.765 57.0896 177.59 56.3737C178.431 55.6425 179.474 55.2769 180.72 55.2769C181.965 55.2769 183.001 55.6425 183.826 56.3737C184.667 57.0896 185.087 58.0112 185.087 59.1384C185.087 60.2657 184.667 61.1949 183.826 61.9261C183.001 62.642 181.965 63 180.72 63C179.474 63 178.431 62.642 177.59 61.9261C176.765 61.1949 176.352 60.2657 176.352 59.1384Z" fill="#78B054"/>
<defs>
<linearGradient id="paint0_linear" x1="188" y1="237.385" x2="187.029" y2="196.155" gradientUnits="userSpaceOnUse">
<stop stop-color="#78B054"/>
<stop offset="1" stop-color="#285331"/>
</linearGradient>
</defs>
</svg>
